<?xml version="1.0" encoding="utf-8"?>
<!-- Generator: Adobe Illustrator 24.1.2, SVG Export Plug-In . SVG Version: 6.00 Build 0)  -->
<svg version="1.1" id="date" xmlns="http://www.w3.org/2000/svg" xmlns:xlink="http://www.w3.org/1999/xlink" x="0px" y="0px"
	 viewBox="0 0 994.3 865.7" style="enable-background:new 0 0 994.3 865.7;" xml:space="preserve">
<style type="text/css">
	.st0{fill:#FFE200;}
	.st1{display:none;fill:#FFE200;}
	.st2{fill:#FFFFFF;}
	.st3{fill:none;stroke:#FF5E5E;stroke-width:5;stroke-linecap:round;stroke-linejoin:round;}
	.st4{fill:none;stroke:#6D00FF;stroke-width:5;stroke-linecap:round;stroke-linejoin:round;}
	.st5{fill:none;stroke:#000000;stroke-width:5;stroke-linecap:round;stroke-linejoin:round;}
	.st6{fill:none;stroke:#FFE200;stroke-width:5;stroke-linecap:round;stroke-linejoin:round;}
	.st7{fill:none;stroke:#FFFFFF;stroke-width:5;stroke-linecap:round;stroke-linejoin:round;}
	.st8{fill:none;stroke:#FF5E5E;stroke-width:5;}
	.st9{fill:none;stroke:#6D00FF;stroke-width:10;}
	.st10{fill:#FF5E5E;}
</style>
<g id="sikaku">
	<polygon class="st0" points="964.3,667.3 32.9,786.3 32.9,245 964.3,126 	"/>
</g>
<g id="body">
	<g>
		<path class="st1" d="M444.8,216.3c9.3,0.8,34.4-14.8,45.2-22.1c33.5-22.5,44.6-37.7,83.5-35c20.7,1.5,42.3,15.7,64.4,11.8
			c34.1-6,59.8-29.1,92.7-39.5c59.4-18.9,57.5,6.3,92.7,8.7c30.3,2.1,93.1-60.3,126.8-10.8c25.4,37.4-5.7,74.3,2.9,115.2
			c3.9,18.6,17.3,38.7,12.9,65.7c-5,30.4-27,43.6-21.7,73.8c4.9,28.1,23.8,56.4,11.7,86.7c-14.8,37.1-13.9,57.6-16.5,78.7
			c-3.9,32,32.5,50.8,7.7,96c-14,25.5-40.3,34.5-65.7,33.9c-16.1-0.3-43.1-11.4-60.1-5c-20.4,7.7-36.4,24-51.8,31.8
			c-20.7,10.5-68.2,18.5-89.4,19.2c-39,1.4-69.8-11.4-110.6,1.5c-61,19.4-79.4,46.1-144.4,25.5c-44.6-14.2-8.2-53.2-14.6-77.5
			c-7.2-27.3-30.9-39.7-25.4-73.7c5.8-35.1,25.9-73.2,18.5-108.4c-1.4-6.5-1.8-13.2-2.9-19.7c-3.3-18.9-22.2-17.1-16.6-62.7
			c3.4-27.4,22.5-43.7,24.4-53.5c5.3-27.2-8.9-44.1-20.5-64.9c-11.3-20.3-0.4-63.5,21.3-73.5C431.1,208.7,435.5,215.5,444.8,216.3z"
			/>
		<path class="st2" d="M742.4,236.6l-13.2-2c0,0,24.3,36.2,51.6,39s50.6-10.9,50.6-10.9s5.7-3.7,6-6.7s-7.2-6.2-7.2-6.2
			s12.3-5.3,21.3,7.4s20.1,25.3,20.1,25.3s24.2,8.8,32.6,20.3c8.4,11.5,10.1,34.3,11.1,43.1c1,8.8,7.8,33.3,6.2,41.9
			s-10.1,11.9-12.1,19.3c-2,7.4,3.6,19,3.6,19s-9.8,2.1-16.2,2.6c-6.4,0.4-13.1-1.4-13.1-1.4l4.7-13.1c0,0-2.5-4.5-18.5,0.4
			c-16,4.9-31.6,10.3-36.8,6.4c-5.1-3.9-7-5.8-7-5.8l-13.6,56.2l-24.9,7.2c0,0-54.4-8.2-69.4-15.4c-15-7.2-40.5-17.1-47.7-27.8
			s-15.8-21.5-15.8-21.5s6.3-5.3,2.1-13.3c-4.2-8-5.1-13.5-2.5-16.5c2.5-3,5.5-2.1,5.5-2.1s-12.4-22.4-9.9-29.1s5.7-17.7,5.7-17.7
			l25.6-34.8c0,0-3.7-34.7-4.1-37.4c-0.5-2.7,27.4-41.3,27.4-41.3l38.7,7.3l5.7,4L742.4,236.6z"/>
		<path class="st2" d="M665.8,342.1c0,0-20.9-25.4-26.9-29.1s-19.3-9-21.5-14.6s-6.2-11.1-7.4-16.6c-1.2-5.5-1.6-9,5.1-10
			c6.8-1,12.7-2,12.7-2s15.2-32.4,30-41.2c14.8-8.8,24-13.9,41.7-9.4c17.6,4.5,20.1,26.9,20.1,26.9L665.8,342.1z"/>
		<path class="st3" d="M874.7,505.2c24-12.6,48.1-15.3,76.2-15.3"/>
		<path class="st3" d="M844.5,541.8c14.1,12,44.1,7.6,54.6-8.2c2.1-3.1,4.2-9.2-1.1-10.9c-9.8-3.3-18,7.6-27.3,7.6"/>
		<path class="st3" d="M840.7,567.5c8.4,4.2,17.3,7.4,25.1,12.6"/>
		<path class="st3" d="M806.8,592.6c13.3,14.9,65.8,45.9,86.3,32.2"/>
		<path class="st3" d="M880.5,602c18.3,1.7,28.5,12.7,40.4,24.6"/>
		<path class="st3" d="M800.3,606c6.2,9.6,11.6,19.7,18.9,28.5"/>
		<path class="st3" d="M759.7,666.2c15.9-11.3,35.4-8.5,52.3-15.5"/>
		<path class="st3" d="M876.1,273.1c31.4,4.6,61.4,24.1,82.1,40.3"/>
		<path class="st3" d="M899.1,478.8c19.9-3.5,37.9-1.5,56.7,1.4"/>
		<path class="st3" d="M856.2,591c26.3,6.5,55-3.4,73.9-22.2"/>
		<path class="st3" d="M923.6,606.3c8.8,7.1,10,17.4,13.8,26.9"/>
		<path class="st3" d="M581.2,292.4c5.2-5.2,11.5-8.2,19.8-9.9"/>
		<path class="st3" d="M932.2,466.5c9.5,0,18.8,0,27.7-6.8"/>
		<path class="st3" d="M737.3,235.9c-2.4-0.3-4.8-0.6-7-1.5"/>
		<path class="st4" d="M737.3,245.4c14.1,17.3,36.9,30.2,60.4,27.4c11.4-1.4,27.9-3.4,39.2-14.2"/>
		<path class="st5" d="M832.1,248.8c18.7-1.2,19.9,9.2,28.9,21.1c3.4,4.5,7.5,8,11.5,12c2.3,2.3,5.8,2.9,8.6,4.4
			c17.8,9.8,33.9,20.4,34.2,42.4"/>
		<path class="st6" d="M893.5,316c-22.8,5.6-70.4,54.3-63.9,74.2"/>
		<path class="st4" d="M842.8,406.4c26.3-5.5,41.9,0.8,61.6,16.8"/>
		<path class="st5" d="M915.7,342.3c0.4,5.5,1.2,10.8,2.1,16.2c1.2,6.6,5.7,27.5,3.1,33.7c-6.3,14.6-14.7,9.9-10.5,27.9"/>
		<path class="st4" d="M851.9,362.7c11.2-5.3,23.4-11.8,30.7-22"/>
		<path class="st5" d="M809.7,326.5c0.9,19.1,2.2,37.3,11.5,54.2"/>
		<path class="st5" d="M829.6,397.6c2.7,5.8-7,10.3-4.8,15.7c7.7,18.4,44.3,1.9,57-1"/>
		<path class="st3" d="M825.8,426.8c-4.3,9.8-7.2,25.5-9.5,32.9"/>
		<path class="st5" d="M887,421.4c-10.1,24-15.3,49.5-23,74.2c-2.5,8.1-1.2,20.9-9.6,25.8c-7.3,4.3-53.5,1.7-64.3,1.5"/>
		<path class="st4" d="M743,228.8c-16.5,1.1-46-13.9-59.9-11.1c-31.6,6.4-46,33-59,57.8"/>
		<path class="st5" d="M617,272.4c-13.5,2.2-5.9,11.1-2.1,18.1c1.2,2.2-0.2,5.6,1.1,7.4c8.1,10.8,26,13.8,34,28.3"/>
		<path class="st4" d="M645.3,267.5c2.4,0.1,4,2.6,6,3.7c8.8,4.5,14.7,7.9,15.7,18.6c0.2,2.6-0.2,11.3-5.5,8.9
			c-9.2-4.1-7.3-15-18.7-16.8"/>
		<path class="st6" d="M641.3,294.5c3.7,6.3,13.6,14.4,23.1,14.9"/>
		<path class="st6" d="M757.4,281.9c27.3,7.9,61.2,5.9,85.8-8.6"/>
		<path class="st6" d="M797,340.3c0.4,3.8,7.4,15.2,9.2,18.6"/>
		<path class="st3" d="M825.8,474.9c-3.4-1-6.8-2.8-10.4-2.7c-9.6,0.1-20.3,5.6-29.8,7.2c-21.8,3.6-42.4,8.1-64.1,12.2
			c-12.8,2.5-23.4,7.5-35.9,10.4"/>
		<path class="st4" d="M673,521.5c12.3-9.8,48.9-21.8,64.4-17.1c8.4,2.5,13.9,10.2,22,12.8c3,1,6.2-0.3,9.2,0.6
			c9.3,3,19.5,16,23.4,24"/>
		<path class="st5" d="M668.6,526.4c-26.8,29.8-35.6,69.4-56,102.5c-7.1,11.6-19.6,20.2-23.9,33.3"/>
		<path class="st4" d="M742.1,571.4c-2-6.5-3.7-20-11.9-22.7c-5.5-1.8-7.6,15.2-6.8,18.3c2.4,9.2,9.5,18,13.6,26.7
			c3.3,7,8.3,32.8,9.4,41.3"/>
		<path class="st5" d="M702.6,590.4c-1.6,8.1-0.5,1.6,0.2,19.4c0.7,16.3,4.3,32.1,6.6,48.3c0.3,2.5,10.6,39.3,12.2,36.5"/>
		<path class="st4" d="M818.5,390.9c-16.4-17.6-29.2,2.8-17.4,9.6c2,1.1,8.6-2.9,10.8-3.4c2.6-0.6,6,0.1,8.7,0.5"/>
		<path class="st5" d="M633.5,395.2c23.9,15.4,26.6,57.3,34.1,82.1c1.8,6.1,5.3,13.9,5.4,20.3"/>
		<path class="st5" d="M498.7,302.2c18.3-10.4,51-18.9,70-9.4c13.6,6.8,27.3,36.1,30.3,48.7"/>
		<path class="st6" d="M671,248.3c4.9,18.4,11.4,38.3,8.3,57.8"/>
		<path class="st5" d="M671.5,312.2c-10.5,16.4-28.3,40.6-17.2,61c2.7,4.8,6.3,8.9,9,13.6"/>
		<path class="st5" d="M669.3,399.5c6.6,13.8,15.6,26.7,28.9,34.6"/>
		<path class="st5" d="M662.2,422.4c8.7,14.8,20.6,28,37,33.9"/>
		<path class="st5" d="M810.7,414.5c-10.9,3.8-22.8,6.4-34.5,6.2"/>
		<path class="st6" d="M749.2,419.9c4.2,6.4,50.3,16.7,44.5,24.7c-3.5,4.8-57.6,1.7-67.5-5.3"/>
		<path class="st4" d="M750.1,400.6c7.1,8.3,17,10.1,27.1,11.6"/>
		<path class="st5" d="M812.6,428.2c-15-2.4-12.7,6.9-4,14.2"/>
		<path class="st5" d="M737.8,457.9c17.3,6.5,39.5-6.8,55.5,5.6"/>
		<path class="st5" d="M545.1,375.2c19.1,39.1,33.7,96.9,63.9,133.3"/>
		<path class="st5" d="M556.6,334.7c4.8,17.6,8.3,37.7-1.3,53.4"/>
		<path class="st4" d="M711.7,459.5c23.5,9.7,39.7,18.3,65.8,17.5"/>
		<path class="st4" d="M719.1,469.2c-2.2,7.2,8.7,22.2,10,8.4"/>
		<path class="st5" d="M738.3,476.6c1.7,2,2.3,4.5,3,6.9"/>
		<path class="st4" d="M697.4,462.5c-5.8,7.4-9.4,18.5-19.2,21.3"/>
		<path class="st5" d="M681.5,463.7c-2.8,2.7-6,4.6-9.8,5.8"/>
		<path class="st3" d="M624.5,318.8c-9.5,47.3-33,82.9-15,128.9c5.7,14.4,31.5,64.6,31.7,75.3"/>
		<path class="st3" d="M675.9,505.8c-11.4,4.8-28.1,15.9-30.1,42.1"/>
		<path class="st5" d="M608.9,578.4c4.6-3,8.7-1.3,12.8,1.3"/>
		<path class="st5" d="M600.3,596.5c-8.4,8.3-4.3,23.7,2.6,33.4"/>
		<path class="st5" d="M621,587.1c1.5,3.8,2.4,7.8,2.8,11.9"/>
		<path class="st4" d="M767.7,559.7c7.3,12,27.3,47.3,17.3,61c-5.4,7.5-15.1,7.2-21.4,16.9"/>
		<path class="st5" d="M755.3,575.3c1.3,24.6,1.6,50.3-5.9,74.3c-4.1,13.2-18.5,24.4-17.1,46.7"/>
		<path class="st5" d="M790.3,602.7c9.3-13.8,12.9-36.1,6-51.8"/>
		<path class="st5" d="M832.1,529c0,16.5-12.8,14.4-18.7,25.4c-2.1,3.9-0.3,9.1-2.4,12.6c-1.4,2.4-4.6,3.5-6.3,5.5"/>
		<path class="st4" d="M560.5,393.9c2.8-0.2,10.2,0,12.5-1.3c3.3-1.8,4.3-6.3,8.8-9.3c9.2-6.1,9.9,13.7,0.6,18.8
			c-2.6,1.4-12.1,1.1-15.3,1.6"/>
		<path class="st5" d="M575.2,432.6c5.8,5.4,13.3,8,18.8,13.7"/>
		<path class="st5" d="M458,599c3.9-14.2,54.1-43.3,67.8-37.8c7.8,3.2,19.3,10.3,28,9c11.4-1.6,43.5-24.7,48.9-33.7"/>
		<path class="st5" d="M613.5,522.2c-3.6,18.8-13.3,37.3-24.4,52"/>
		<path class="st5" d="M491.8,307c-13.7,33.6-17,72.1-16.1,111.4"/>
		<path class="st5" d="M584.8,334.3c2,10.8,2.2,23.4-0.6,34.1"/>
		<path class="st5" d="M602,353c2.7,6.5,4.7,13.5,5.4,20.4"/>
		<path class="st4" d="M655.4,384.4c-9,4.9,11.5,22.8,0.8,29.2"/>
		<path class="st4" d="M714.4,406.6c-44.8-22.6-28.8,4.3-19.5,9.3"/>
		<path class="st4" d="M525.2,540.1c1.6-5.4,2.5-10.9,3.8-16.4c15.5-62.2,21.5,16,23.6,30.5"/>
		<path class="st4" d="M551.7,322.6c-22.6-18.9-1.7,36.5-1.1,41.7"/>
		<path class="st4" d="M663,698.3c2.2-10.8,3.4-21.9,6-32.5c18.9-77.5,19.3,16.3,24.4,28.9"/>
		<path class="st7" d="M628.4,639c-8.2,16.5-22.6,29.2-33.8,43.1"/>
		<path class="st4" d="M528.4,344.4c3.2,3,5.6,6.5,6.3,10.8"/>
		<path class="st3" d="M438.8,506.8c-16,33.5-27.6,61.7-29,85c-1.6,26.7-0.1,103.9,10,143.3"/>
		<path class="st3" d="M428.8,670.5c19-11.9,35-12.9,50.4-5.4"/>
		<path class="st3" d="M433.2,613.6c9.4,19.1,21.2,30.5,40,37.1"/>
		<path class="st4" d="M586.3,579.5c-2.2,5.1-5.9,8.6-9.7,12.4"/>
		<path class="st4" d="M468,392c-8.7,36.4-24,159.5-16.2,201.8c1.9,10.1,12.7,20.8,19,24.8"/>
		<path class="st5" d="M479.1,620.9c4.7,1.4,19.1,2.6,23.4,0"/>
		<path class="st3" d="M638.2,528.6c-4.5,10.9-36.6,38-37.4,46.3c-1.1,11.7,11.6,28.3,12.7,41.7"/>
	</g>
</g>
<g id="sune2">
	<path class="st3" d="M506.4,569.7c0.8,7.5,0.8,8.6,1.6,16.1"/>
</g>
<g id="sune1">
	<path class="st5" d="M567,565.5c-0.1,3.8-0.3,7.6-0.4,11.4"/>
</g>
<g id="asi_1_">
	<g id="asi">
		<path class="st2" d="M500.6,593.9l-1.4,3.5c0,0,14.2,21.9,13,25.4s-1.9,7-1.9,7s22.5-3.1,31.5,1.2s11.5,9.1,12.4,16.3
			c0.8,7.2-0.4,8.9-0.4,8.9l16.5-1c0,0-5-26.8-2.5-30.3c2.5-3.5,4.3-6.4,4.3-6.4l-6.4-11.3c0,0,6.8-15.7,4.7-21
			c-2.1-5.4-14.6-8-28-5.4C529,583.4,500.6,593.9,500.6,593.9z"/>
		<path class="st0" d="M473.2,725.9c0,0-18.9,23.2-29.2,28.6c-10.3,5.4-20.8,11.1-26.5,22.6s-4.8,16.6-4.8,16.6s-1.7,4.8-1.2,9.1
			s3.2,10.2,3.2,10.2s19.9,19.7,41.7,18.9s44.6-10.5,50.5-17.9c5.8-7.4,6.2-10.2,6.2-10.2s17.4-14.3,25.5-26.6s23.2-13,34.9-15.5
			c11.7-2.6,17.9-3.4,19.9-6.7c2-3.3,3.8-18.8,4.5-27.3c0.7-8.5-4.9-13.5-6.7-22.4C589.5,696.6,473.2,725.9,473.2,725.9z"/>
		<path class="st5" d="M503.2,593.9c11.8-4.8,55.2-18.8,66.5-7.6c2.7,2.7-1.8,19.2-2.9,22.8c-0.4,1.4,4.8,8.1,5.2,10.4
			c0.4,2.2-3,4.7-3.5,6.9c-1.3,5.8,1.3,27.5,2.9,33.3"/>
		<path class="st5" d="M531.1,613.9c7.2-2.1,14.7-3.8,22-5.4"/>
		<path class="st5" d="M488.9,643.7c1.8,9,9.6,16.5,11.8,25.6"/>
		<path class="st5" d="M502.2,601.8c5,6.8,6.5,14.3,8.8,22.1"/>
		<path class="st5" d="M495.2,674.5c-5.2,5.7-7.8,12.8-10,20c-5.4,17.4-10.3,32.8-23.4,46.7c-15.5,16.5-42.6,21-48,52"/>
		<path class="st4" d="M416.2,806.6c28,23.2,75.5,14.3,99.4-2.6c10-7,19.8-23.8,29.5-30.4c13.1-8.9,29.5-10.6,44.2-15.9"/>
		<path class="st5" d="M576.3,656.5c11.7,9.6,7.2,22.5,10.5,34.6c8.2,30.1,15.4,24.9,9.3,60"/>
		<path class="st5" d="M415.4,812.3c19.3,23.7,64.7,26.4,93.3,1.4"/>
		<path class="st3" d="M590.2,731.4c-4,2.6-8.4,4.8-12.6,6.9c-9.9,5-19.8,6.4-29.2,12.8c-21.3,14.4-15.9,33.8-57.1,46.3"/>
		<path class="st3" d="M424,796.5c18.8,8.1,44.5,9.4,60.3,2.9"/>
		<path class="st3" d="M561.1,657.1c-9.8-0.5-13.7,5-20.2,9"/>
		<path class="st5" d="M567.8,669.2c-5.7,0.3-11.4,0.8-17.1,1.6c-5.6,0.8-12.1-1.6-17.4,1.1c-3.1,1.5-3,4.2-3.7,6.9
			c-4.6,17.9,21.4,32.2,39,32.8"/>
		<path class="st3" d="M547,678.6c9.7,0.2,18.9-0.9,28.2-2.7"/>
		<path class="st3" d="M552.6,711.9c-1.5,18.3-23.2,2.6-29.2,12.8c-2.7,4.6-3.6,10.2-6.1,15"/>
		<path class="st4" d="M493.5,635.1c18.3-9.5,59.1-11.9,61.7,13.6"/>
		<path class="st7" d="M526.6,637.2c0.5,7.8,2.2,20.3,0.6,22.7c-1.3,2-12.9-1.7-21.8,1.8"/>
		<path class="st5" d="M546.3,620.1c4-1.6,8.3-0.4,12.1,1.2"/>
		<path class="st3" d="M448.8,756.3c3.8-0.6,9.1-0.1,12.1-2.8c13.4-12.2,27.4-35.2,31.9-60.1"/>
		<path class="st5" d="M529.7,697.3c-0.4,3.2-0.5,7-3.3,9.1c-3.9,2.9-10.1-2.5-12.7-0.5c-9.2,6.9-6.9,24.2-11,33.6
			c-2.7,6.2-11,10.9-9.8,18.4c1.3,8.1,14.4,6.9,12,15.4"/>
		<path class="st3" d="M496.9,781.3c-21.4,11.4-3.6-6.8-29.7,2.7"/>
		<path class="st7" d="M430.6,775.8c6.8,8.3,18.6,9.7,28.7,8"/>
		<path class="st3" d="M518.8,747.8c-0.3,6.5,5.3,10.4,6.7,16"/>
		<path class="st3" d="M585.8,705.6c-2.5,13.1-23.2,16.3-20.4,31.6"/>
		<path class="st4" d="M502.5,678.2c-15.2-1.9-22.5,11.8-33.4,19.6c-3.3,2.4-9.3,3.5-11.6,7c-4.8,7.2,0.9,12.5,8.5,11.6
			c12.8-1.6,16.1-20.1,26-26c2.7-1.6,5.8-2.5,8.3-4.2"/>
		<path class="st4" d="M507.2,681c-2.5,6.3,4.7,14,7.5,20.2c3.7,8.1,1.6,44.1,4.4,45.3c26.3,11.3,11.3-47.6,1.3-56.6"/>
		<path class="st4" d="M513.8,683c0.9,0.9,2,1.6,3,2.3"/>
		<path class="st4" d="M489.9,704.3c6.7-1.3,14.2-1.1,20.5,1.6"/>
		<path class="st4" d="M494.8,698.7c25.1,27.2,11.7,9.1-11,21.5"/>
		<path class="st4" d="M489.8,711.1c5.5,3.4,9.2,11,15.4,13"/>
		<path class="st4" d="M481.2,729.1c7.9,0.5,15.9-2.9,23.7-1.6"/>
		<path class="st4" d="M485.9,724.7c5.2,4.7,12.8,9.6,17.4,13.3"/>
		<path class="st4" d="M479.3,739.5c7.1-1.7,15.1,0.5,21.5,0.9"/>
		<path class="st4" d="M480.2,735.2c23.1,16,20.8,12.2,0.9,10.7c-19.1-1.5-10.1,4.1,1.6,7c2.6,0.7,7.4,1.7,8.9,2"/>
		<path class="st4" d="M493.7,676.5c-15.8-5.4-32.1,10.6-44.9-4.7"/>
		<path class="st4" d="M489.9,700c8.7-4.1,18.3-5.9,27.7-6.5"/>
	</g>
</g>
<g id="hear_x5F_under">
	<path class="st0" d="M710,150.3c-0.1-1.9,0.5-21.6,0.6-23.4c-3,3.5-8.7,24.9-16.1,32.3c-9.5,9.5-19.8,15.1-19.8,15.1l7.9,8.2
		c0,0,9.7-7.5,16-14.2C704.9,161.7,710.1,153.4,710,150.3z"/>
	<g>
		<path class="st5" d="M700.6,148.5c-5.2,8.7-13.9,22.5-24.9,24.9"/>
		<path class="st4" d="M704.8,157.7c-4.7,9.4-12.4,19.8-22.9,23.2"/>
	</g>
</g>
<g id="head">
	<path class="st0" d="M915.3,180.6c0,0-22.9-49.4-22-55.6c0.5-3.2-3.5-22.3-1-21.5c-5.9-40.7-29.3-55.5-47.5-65.6
		c-19.6-10.9-37.3-2.9-37.3-2.9s-6.9-4.5-34.2-2.3c-27.4,2.3-45.5,17.7-52,29c-6.4,11.3-14.9,33.8-16.8,46.3
		c-1.9,12.6,3.2,21.9,3.2,21.9s-0.2,24.7,2.1,34.8c0.1,0.5,0.9,26.1,0.9,26.1l8.4,23.7c0,0,40.1,19.2,80,26.1S938,215.4,938,215.4
		L915.3,180.6z"/>
	<path class="st5" d="M711.8,150.6c19.2,11.9-1.4,14.1,6.3,21.5"/>
	<path class="st4" d="M719,179.3c0.1,3.3,1.1,5.6,4.4,6.5"/>
	<path class="st3" d="M724.3,192.9c0.5,3.5-0.5,10.2,3.5,12.2c7.2,3.6,41.8-11.9,53.2-12.7"/>
	<g>
		<path class="st5" d="M739,122.4c10.5-5.8,24.6-7.6,32.4,2.7"/>
		<path class="st3" d="M739,113.6c3.9-2.5,7.5-2.5,11.8-2.3"/>
		<path class="st5" d="M734.4,116.3c0.6,2.8,2.1,5,4.8,5.6"/>
		<path class="st5" d="M742.7,115.3c0.1,1.8,1.2,3.1,2.6,3.8"/>
	</g>
	<path class="st5" d="M756.6,205.9c-0.4,9.7,3.4,26.5-13.8,31.1"/>
	<path class="st3" d="M719.7,130.5c-1.8,5.2-5.6,12.5-11.3,11.4"/>
	<path class="st3" d="M808.8,187.7c-2.8,19.1-7,53.7,16.6,61.3"/>
	<path class="st7" d="M741.2,68.9c-2.1,12.9-3.6,28.4,5.6,37.4"/>
	<path class="st4" d="M834.3,195.3c7.8,12,18.3,22.3,31.4,28.5"/>
	<path class="st5" d="M704.3,105.1c-2.7,9.8-0.2,18.6,2.8,27.5"/>
	<path class="st5" d="M710.6,174.6c1.2,12.6,0.5,27.9,8.4,38.5"/>
	<g>
		<path class="st5" d="M739.9,209.3c2.1,5.7,6.6,9.6,11.1,13.5"/>
		<path class="st4" d="M747.5,208c0.6,1.9,2.8,4.1,4,5.6"/>
	</g>
	<path class="st4" d="M811.6,35.6c46.1-9.2,80.2,40.8,80.7,80.9"/>
	<path class="st4" d="M733.5,98.5c10.6-4.8,28.4-8.3,37.4,1.1"/>
	<path class="st5" d="M717,70.5c15.3-28.6,48.4-46.4,80-35.7"/>
</g>
<g id="mouse">
	<path class="st3" d="M727.6,173.9c2.7-1.9,5.8-1.2,8.5,0.2"/>
</g>
<g id="mimi">
	<path class="st3" d="M805.2,125.5c18.2-9.5,27.2,19.5,12,29.2"/>
</g>
<g id="shitamabuta">
	<path class="st3" d="M745.5,146.2c6.8,3.1,13.2-0.4,18.1-5.4"/>
</g>
<g id="eye">
	<path class="st4" d="M741.7,125.1c-3.3,15.3,10,23.4,6.4,3.2"/>
</g>
<g id="hear9">
	<g>
		<path class="st5" d="M823.1,63.6c23.6,6.7,43.6,67.4,28.9,76.3"/>
		<path class="st4" d="M831.4,96.8c7.9,15.8,11.6,37,0.6,52.2"/>
		<path class="st5" d="M844.7,121.8c1.3,5.8,0.4,11.8-1.6,17.4"/>
	</g>
</g>
<g id="hear8">
	<g>
		<path class="st5" d="M719.6,86.1c-3.9,15.6-4.1,39.4,12.2,48.9"/>
		<path class="st5" d="M734.6,84.1c-5.4,10.7-10.9,28.8-7,40.4"/>
	</g>
</g>
<g id="hear7">
	<g>
		<path class="st5" d="M746.7,71.4c-5.8,19.1,24,63.2,43.5,63"/>
		<path class="st5" d="M775.3,86.4c5.3,18.6,17.1,38.5,34.7,48.7"/>
		<path class="st4" d="M780.5,118.3c4.2,6,8.2,8.9,13.4,11.2"/>
		<path class="st7" d="M760.9,52c-4.5,9.6-3.7,19.5-2.6,29.5"/>
		<path class="st7" d="M764.9,65.4c-0.2,2.3-0.3,4.5-0.3,6.8"/>
	</g>
</g>
<g id="hear6">
	<g>
		<path class="st5" d="M781.3,142.5c10.2,23.8,25.2,40.5,47.3,53"/>
		<path class="st5" d="M802.6,138.4c6,11.2,20.3,44.9,36.8,44.2"/>
		<path class="st7" d="M794.2,150c4.1,6.5,7.6,14.5,13.6,19.3"/>
	</g>
</g>
<g id="hear5">
	<g>
		<path class="st0" d="M721.2,65.4c0,0-9.2,8-20.1,16.9c-10.9,9-32,20.3-32,20.3s6.3-0.3,12.3,5.1s5.4,5.5,5.4,5.5
			s10.8-10.3,20.8-11.3C716.7,101.1,721.2,65.4,721.2,65.4z"/>
		<path class="st4" d="M709.8,75.2c-9.4,11.5-25.3,21.9-38.8,27.9"/>
		<path class="st7" d="M704.4,90.4c-7.2,6.1-13.5,13.8-22.9,15.9"/>
		<path class="st5" d="M687.9,112.5c3.9-1.9,7.1-5.1,10.5-7.7"/>
	</g>
</g>
<g id="hear4">
	<g>
		<path class="st5" d="M816.5,195.1c4.5,9.5,11.5,26.6,22.1,31"/>
		<path class="st4" d="M812.6,208.9c2.9,5.4,6.5,11.7,11.9,14.7"/>
	</g>
</g>
<g id="hear3">
	<g>
		<path class="st4" d="M847.4,153.8c11.1,19.8,27.5,48.8,53.6,50.8"/>
		<path class="st5" d="M853.2,196.2c8.8,10.8,20.6,20.1,34.5,23.2"/>
		<path class="st5" d="M879.7,209c4.8,4.1,10.7,5.1,16.8,5.5"/>
	</g>
</g>
<g id="hear1">
	<g>
		<path class="st4" d="M865.7,144.7c22.6,20.3,55.3,38.7,65.3,69"/>
		<path class="st5" d="M903.3,187.4c7,7.2,14.9,15.3,17.3,25.3"/>
	</g>
</g>
<g id="hear2">
	<path class="st0" d="M904.2,136.9c-8.4-4.9-34.6-26.8-35.3-35.9c-1.8,3.6-4.6,17.5-6.9,20.8c-3.4,4.8,2.8,15.5,2.8,15.5
		s12,7.6,10.9,7.6c3.4,2.1,28.8,17.3,45,24.4c17.4,7.7,23,2.7,23,2.7l4.8-21.2C948.5,150.9,926.5,149.9,904.2,136.9z"/>
	<g>
		<path class="st5" d="M867.9,99c12.6,24.8,49.6,53.7,80.6,51.8"/>
		<path class="st4" d="M886.7,136c12.6,10.3,37.1,24.4,55.7,23.2"/>
		<path class="st5" d="M903.3,158.6c10.3,6.8,27.1,16.8,40.4,13.4"/>
	</g>
</g>
<g id="title">
	<g id="karisaito">
		<path class="st8" d="M560.8,191.1c-5.9,9.9-13.9,16.1-20.9,16.9"/>
		<path class="st8" d="M552.9,205.3c-1.5,2.9-5.2,11.9-6.4,17"/>
		<path class="st8" d="M567,194.8c1.8,1,11.7,2.6,14.3,0.9"/>
		<path class="st8" d="M565.6,200.4c-2.4,5.9-8.8,19.6-13.5,22.7"/>
		<path class="st8" d="M568.5,204.5c18-1-1.4,17.5-7.4,18.9"/>
		<path class="st8" d="M565.4,210.9c0.3,6.8,6.9,10.2,11.4,10.1"/>
		<path class="st8" d="M587.1,203.6c6.9-0.8,18.3-3.6,25.5-6.5"/>
		<path class="st8" d="M594.9,195c0.3,4.6-1,12.6-1.9,17.1"/>
		<path class="st8" d="M604.4,193.3c-1.1,8.6,1.3,23.1-11.8,30.5"/>
		<path class="st8" d="M636.2,185.8c-3.8,7-13.5,20.7-19.2,23.8"/>
		<path class="st8" d="M629.2,203.9c0.9,1.9-0.8,12.4-2,15.6"/>
		<path class="st8" d="M649.3,178.6c-1.4,20.5-3.3,31-5.6,36.1"/>
		<path class="st8" d="M654.3,194.7c4.5,1.5,7.6,0.4,12.7-3.6"/>
	</g>
	<g>
		<path class="st9" d="M45.1,205.1c28.6,1.1,60.8-6.9,87.2-19.6"/>
		<path class="st9" d="M96.3,209.7c-9,11.3-28,25.1-41.3,32.3c0,0,1.7,24.1,0.2,47c-0.8,13.1-3.9,24.1-3.9,24.1"/>
		<path class="st9" d="M69.5,248.1c12-4.7,45.7-18.2,56.9-10c8.3,6.1-1.4,45.5-6.8,54.4"/>
		<path class="st9" d="M68.5,274.9c0,0,9.8-4.5,20.7-7.7s19.3-3.9,20.9-0.5c1.5,3.4-7.8,13.2-15.2,19.4c-18.5,15.5-32.5,27-32.5,27
			s16-6.4,34.8-10.6s31-1.7,31-1.7"/>
	</g>
	<g>
		<path class="st9" d="M149.3,182.5c0.2,11.5,5.5,19.6,11.9,25.3"/>
		<path class="st9" d="M149.1,229.1c2.2,6.1,8.3,11.5,13,13.5"/>
		<path class="st9" d="M141.7,297.2c9.4,1.9,13.4-12.7,16.1-21.3"/>
		<path class="st9" d="M166.8,278.7c2.4-6.8,8.2-16.9,13.7-20.3"/>
		<path class="st9" d="M173.6,194.9c8.3-2,18.4-7.5,26.5-11.5"/>
		<path class="st9" d="M172.4,210.7c0.9,8.1,1,29.5,0.2,33.6"/>
		<path class="st9" d="M177,221.2c0,0,13.9-14.2,21.7-9.6c3.9,2.3,4.2,15.8-2.1,23.2c-6.3,7.5-15.2,12-15.2,12l20-9.2"/>
		<path class="st9" d="M188.1,166.1c0,0,1.3,34.8,1.6,63.5c0.4,28.7-8.1,72.5-8.1,72.5"/>
		<path class="st9" d="M192.9,253.3c0,0,3.7,9,8.3,12c4.2,2.8,7.1,2,7.1,2"/>
		<path class="st9" d="M219.8,265.9c-2.2,9.3-8.2,19-14,25"/>
		<path class="st9" d="M230.4,262.9c1.1,2.4,5.9,9.6,13.3,12.2"/>
		<path class="st9" d="M202.5,168.3c0,0,8.6,4.9,18.4,5c11.2,0.2,16.1-7.9,17-1.6c0.9,6-4.8,9.6-11.1,15c-6.7,5.7-16.3,9.7-16.3,9.7
			l1.6,60.1"/>
		<path class="st9" d="M218.8,206.1c0,0,15.2-9,19.1-3.7c3.8,5.3-1.8,49.8-1.8,49.8"/>
		<line class="st9" x1="219.6" y1="224.4" x2="238.9" y2="215.8"/>
		<line class="st9" x1="220" y1="239.3" x2="235.2" y2="234"/>
		<path class="st9" d="M218.7,257.5c0,0,5.2-4.3,10.7-6.1c5.5-1.7,11.4-2.2,11.4-2.2"/>
	</g>
	<g>
		<path class="st9" d="M499.1,123.3c2.1,16.3-0.1,27.7-2.6,39.5"/>
		<path class="st9" d="M256.3,209.1c0,0,14.6,1.4,33.5-4.3c24.5-7.3,45.4-26.7,49.7-14.2c4.3,12.5-7.4,36.8-16.9,53
			c-9.5,16.2-24.5,33.1-24.5,33.1"/>
		<path class="st9" d="M303.7,162.6c-8,48.4-18.2,96.4-49.6,115.7"/>
		<path class="st9" d="M327.7,145.1c2.5,7.9,7.4,18.9,11.6,24.6"/>
		<path class="st9" d="M348.7,138.2c1.7,7.9,5.8,18.5,9.6,24.2"/>
		<path class="st9" d="M355.8,191.3c8.6,2.5,17-2.5,25.7-5.8"/>
		<path class="st9" d="M348.2,253c39.8,9.6,43.6-73.4,71.2-91.1"/>
		<path class="st9" d="M426.6,164.8c5.3-1,20.5-7.4,28.2-6.9"/>
		<path class="st9" d="M423.1,195.4c6.9-1.2,18.3-7.9,26.6-6.3"/>
		<path class="st9" d="M408.3,245.3c48,14.9,40.6-54.5,78.3-60.4"/>
		<path class="st9" d="M482.1,131.6c2.6,13.2-1.5,29.1-2.4,33.3"/>
		<path class="st9" d="M528.2,171.5c-16.9,27.4-35.6,37.1-47.4,44.2"/>
		<path class="st9" d="M511.2,210c0.4,15.6-1.2,22.6-5.5,30.8"/>
	</g>
</g>
<g id="insta">
	
		<rect x="62.9" y="336.5" transform="matrix(0.9843 -0.1766 0.1766 0.9843 -59.7409 45.4422)" class="st10" width="325.1" height="43.9"/>
	<g>
		<g>
			
				<rect x="80.6" y="367.1" transform="matrix(0.9969 -7.869986e-02 7.869986e-02 0.9969 -28.8073 7.7611)" width="7" height="4.6"/>
		</g>
		<g>
			<path d="M87.8,392.8l-7-0.1c0-2.3,0.1-5.4,0.2-8.4c0.1-3.1,0.2-6.4,0.2-8.8l7,0.1c0,2.5-0.1,5.8-0.2,8.9
				C87.9,387.5,87.8,390.5,87.8,392.8z"/>
		</g>
		<g>
			<path d="M105.9,388.5c-0.4,0-0.8,0-1.2-0.1c-4.5-0.9-4.2-6.4-4.1-9.1c0-0.4,0.1-1,0-1.2c-0.1-1.2-0.4-1.3-0.9-1.3l0.9-6.9
				c3.5,0.5,5.9,2.7,6.7,6.2c0.1-0.1,0.2-0.3,0.3-0.4c4.4-5.2,10.4-7.4,15.9-5.8c5.4,1.5,9.3,6.4,10.2,12.6l-6.9,1
				c-0.5-3.5-2.5-6.1-5.2-6.9c-2.8-0.8-6,0.5-8.6,3.5c-0.2,0.3-0.4,1-0.6,1.5C111.5,384.1,109.8,388.5,105.9,388.5z M113,380.2
				C113,380.3,113,380.3,113,380.2C113,380.3,113,380.3,113,380.2z"/>
		</g>
		<g>
			<path d="M144.9,386.2c-0.1,0-0.1,0-0.2,0l0.1-7c3.5,0,6.2-1.1,9.4-2.9c0,0,0,0,0,0c-0.9-0.6-2.2-1.4-3.1-1.9
				c-3.9-2.2-8.4-4.7-8.1-9.1c0.3-4.4,5.2-7,10.1-8.9l2.6,6.5c-3.2,1.3-4.7,2.3-5.3,2.8c0.9,0.8,2.9,1.9,4.2,2.6
				c3.7,2.1,7.5,4.2,7.6,8c0,2.3-1.5,4.4-4.4,6C154.1,384.4,150.2,386.2,144.9,386.2z"/>
		</g>
		<g>
			<path d="M166.9,366.6l-0.6-7c4.1-0.4,11.7-2.7,15.5-4.5l3,6.3C180.4,363.5,171.9,366.1,166.9,366.6z"/>
		</g>
		<g>
			<path d="M176.6,376.8c-1.9-4.8-2.9-9.6-4-14.3c-0.6-2.6-1.1-5.2-1.8-7.8l6.8-1.9c0.8,2.7,1.4,5.5,1.9,8.1c1,4.6,2,9,3.6,13.3
				L176.6,376.8z"/>
		</g>
		<g>
			<path d="M205.8,370.9c-3.7,0-7.5-1.1-9.3-3.9c-3.4-5.5-1.4-13.2,2.5-17.3c3.6-3.9,8.5-4.8,13.1-2.5l-3.2,6.2
				c-0.7-0.3-2.7-1.4-4.8,1c-2.2,2.4-3,6.6-1.6,8.9c1,0.8,5.4,0.9,6.8,0.1c1.7-1,3.2-3,4-4.1c0.8-1,1.5-2,3.1-2.2l1.5-0.2l1.2,0.9
				c0.5,0.4,1,0.8,1.4,1.2c0.8,0.7,2.4,2,3.1,2.2c0.2-0.1,0.6-0.5,1.1-1.5l6.2,3.3c-1.6,3-3.6,4.7-5.9,5.1c-2.9,0.6-5.4-0.9-7.5-2.6
				c-1.1,1.4-2.7,2.9-4.5,4C211.3,370.3,208.6,370.9,205.8,370.9z M202.5,363.3L202.5,363.3z"/>
		</g>
		<g>
			<path d="M243.8,375.1c-0.1,0-0.2,0-0.3,0l0.1-7c5.4,0.1,8.9-2,10.3-6.1c1-3,0.5-6.3-0.6-8.5c-0.1,0.1-0.1,0.1-0.2,0.2
				c-2.4,2.3-6,3.3-10,2.8c-3.8-0.5-6.6-3-7.4-6.6c-1.1-4.8,1.5-10.8,5.7-13.5c3.5-2.2,7.4-1.9,10.8,0.7l-4.3,5.5
				c-1.3-1-2.1-0.8-2.8-0.3c-1.8,1.1-3.1,4.1-2.6,6.1c0.1,0.7,0.4,1.1,1.5,1.2c1.3,0.2,3,0.2,4.1-0.8c0.1-0.1,0.1-0.2,0.2-0.3
				c0.9-1.3,2.1-3.2,4.2-3.5c1.1-0.2,2.2,0.1,3.1,0.7c5,3.7,7.1,11.9,4.9,18.6C258.2,371.2,252.1,375.1,243.8,375.1z"/>
		</g>
		<g>
			<path d="M272.6,353.8c-0.1,0-0.1,0-0.2,0c-3-0.1-3.4-2.4-4.1-6.8c-0.3-1.8-0.7-4.2-1.4-7.5l6.9-1.3c0.1,0.4,0.2,0.8,0.2,1.3
				c2.1-2.4,5.3-4.4,9.9-4.9l0.8,7c-5.4,0.6-7.2,4.5-8.3,8.6C276.1,351.2,275.4,353.8,272.6,353.8z"/>
		</g>
		<g>
			<path d="M300,350.1c-3.2,0-5.1-1.6-6-2.5c-3.5-3.7-2.9-10-0.7-14c2.3-4,6.1-5.9,10.3-5l-1.4,6.9c-0.5-0.1-1.6-0.3-2.8,1.6
				c-1.2,2.1-1.1,4.9-0.3,5.8c0.4,0.5,1.7,0.3,3.2-0.3c0.8-1,2.4-4.1,2.9-5.1c1.1-2.1,1.8-3.6,4-3.6c1.6,0,2.8,0.9,3.5,2.8
				c0.7,1.9,1.2,2.3,1.3,2.4c0,0,0.5,0,1.7-1l4.3,5.5c-2.8,2.2-5.4,2.9-8,2.2c-1.1-0.3-2-0.8-2.7-1.5c-1.4,2.4-2.5,3.8-3.8,4.4
				C303.4,349.7,301.5,350.1,300,350.1z"/>
		</g>
		<g>
			<path d="M328,342.4C327.9,342.4,327.9,342.4,328,342.4c-3,0-4-2.5-6.3-8.4c-0.4-1-0.9-2.3-1.1-2.6c0,0.1,0.1,0.2,0.1,0.2l5.7-4
				c0.4,0.5,0.6,1.1,1.2,2.6c0.7-1.7,1.3-2.5,2.1-3.1c2.3-1.5,4.3-1.5,5.6-1.2c2.1,0.5,3.7,1.8,4.9,3.2c1.3-2.8,3.2-6.2,6.8-6.8
				c4.9-0.9,8.4,2.6,10.9,5.1c0.9,0.9,2.6,2.6,3.2,2.6c0,0,0.1,0,0.3-0.2l4,5.7c-5.4,3.8-9.9-0.6-12.5-3.2c-2-2-3.5-3.4-4.7-3.2
				c-0.5,0.3-1.5,2.5-2.1,3.6c-1.1,2.3-2.2,4.6-4.4,5.7c-3,1.5-4.9-1.6-5.6-2.7c-0.4-0.6-1.5-2.4-2.2-2.9c-0.4,0.9-0.9,2.4-1.3,3.4
				C331.4,340.3,330.7,342.4,328,342.4z M338.6,332.3L338.6,332.3L338.6,332.3z"/>
		</g>
	</g>
</g>
<g id="omokoro">
	
		<rect x="145.4" y="434.2" transform="matrix(0.9801 0.1987 -0.1987 0.9801 96.1103 -45.3863)" class="st10" width="257.5" height="43.9"/>
	<g>
		<g>
			<path d="M231.9,453.1c-9.4,0-11.1-5.6-12-8.6c-0.2-0.5-0.4-1.3-0.6-1.6c-4.7-1.2-7,1.1-8.8,2.9c-1.1,1.1-2.3,2.3-4.2,2.3l-1.6,0
				l-1.1-1.2c-1.1-1.3-1-2.7-0.9-4.1c0.1-0.6,0.2-2.4,0-3.2c-1.8-0.3-3.6,0.4-4.6,1.7c-0.1,0.1-0.2,0.4-0.4,0.6
				c-0.4,0.7-0.9,1.7-1.4,2.4c-0.7,1.1-2.4,4.1-5.4,2.7c-2-0.9-2.2-2.8-2.4-5.8c-0.1-1.8-0.3-4.4-0.8-6l6.7-1.9
				c0.1,0.5,0.2,0.9,0.3,1.4c2.8-2,6.4-2.8,9.9-1.9c2.8,0.7,4.1,2.6,4.6,4.7c2.7-1.6,6.4-2.8,11.6-1.5c3.9,1,4.9,4.4,5.5,6.4
				c0.8,2.6,1.1,3.6,5.4,3.6l0,7C231.9,453.1,231.9,453.1,231.9,453.1z"/>
		</g>
		<g>
			<path d="M293.2,468.9c-11.6,0-15.7-4.7-17-7.5c-1.8-3.5-1.3-7.7,1.4-11.2c3.4-4.5,9.2-6.5,15.3-5.3l-1.3,6.9
				c-4.1-0.8-7,0.9-8.4,2.7c-0.5,0.6-1.5,2.2-0.7,3.8c0.4,0.9,2.5,3.6,11,3.6l0,7C293.3,468.9,293.2,468.9,293.2,468.9z"/>
		</g>
		<g>
			<path d="M342,482.1c-0.5,0-1-0.1-1.5-0.4c-2.7-1.2-2.2-4.1-1.9-5.8c0.3-1.4,0.7-3.5,1.4-6.6c0.4-1.7,0.8-3.6,1.2-5.9l6.9,1.4
				c-0.2,1.1-0.5,2.1-0.6,3.1c3.3-2.3,7.5-3.8,12.7-2.5l-1.7,6.8c-5.2-1.3-9,2.5-12.3,6.9C345.1,480.4,343.9,482.1,342,482.1z"/>
		</g>
		<g>
			<path d="M169.1,445.8c-1.1,0-2.3-0.1-3.5-0.4c-3.6-0.8-6.6-2.8-8.7-5.5c-2.2-2.9-3-6.4-2.3-9.7c1.5-6.7,8.9-10.8,16.4-9.1
				c3.6,0.8,6.7,2.8,8.7,5.5c2.2,2.9,3,6.4,2.3,9.7c-0.7,3-2.5,5.6-5.3,7.3C174.6,445,171.9,445.8,169.1,445.8z M167.6,427.7
				c-3,0-5.6,1.6-6.1,4c-0.3,1.3,0.1,2.7,1,4c1.1,1.4,2.7,2.5,4.7,2.9h0c2.1,0.5,4.3,0.2,5.9-0.9c0.8-0.5,1.8-1.4,2.2-2.9
				c0.3-1.3-0.1-2.7-1-4c-1.1-1.4-2.7-2.5-4.7-2.9C168.9,427.8,168.3,427.7,167.6,427.7z"/>
		</g>
		<g>
			<path d="M254.7,460.4c-1.1,0-2.3-0.1-3.5-0.4l0,0c-7.3-1.6-12.1-8-10.7-14.3c0.7-3.1,2.9-5.8,6-7.3c2.9-1.4,6.4-1.8,9.8-1
				c7.3,1.6,12.1,8,10.7,14.3c-0.6,2.7-2.3,5.1-4.8,6.6C260,459.6,257.4,460.4,254.7,460.4z M252.8,444c-1.2,0-2.3,0.2-3.2,0.7
				c-0.7,0.4-1.9,1.1-2.3,2.5c-0.5,2.4,1.9,5.1,5.4,5.9h0c2.1,0.5,4.2,0.2,5.7-0.8c0.6-0.4,1.5-1.1,1.7-2.3c0.5-2.4-1.9-5.1-5.4-5.9
				C254.1,444,253.5,444,252.8,444z"/>
		</g>
		<g>
			<path d="M317.7,475.2c-1.1,0-2.1-0.1-3.2-0.4l0,0c-7-1.6-11.5-7.8-10.1-14c0.6-2.7,2.3-5.1,4.8-6.7c2.9-1.9,6.7-2.5,10.3-1.6
				c7,1.6,11.5,7.8,10.1,14c-0.6,2.7-2.3,5.1-4.8,6.7C322.8,474.5,320.3,475.2,317.7,475.2z M316,468c1.8,0.4,3.7,0.1,5-0.7
				c0.6-0.4,1.5-1.1,1.7-2.3c0.5-2.4-1.7-4.9-4.9-5.6c-1.8-0.4-3.7-0.1-5,0.7c-0.6,0.4-1.5,1.1-1.7,2.3
				C310.7,464.8,312.9,467.3,316,468L316,468z"/>
		</g>
		<g>
			<path d="M379.1,489.1c-0.8,0-1.7-0.1-2.5-0.3l0,0c-6.3-1.4-10.3-8-8.8-14.6c0.7-3.3,2.7-6.1,5.5-7.9c2.6-1.7,5.7-2.2,8.7-1.6
				c6.3,1.4,10.3,8,8.8,14.6c-0.7,3.3-2.7,6.1-5.5,7.9C383.5,488.5,381.3,489.1,379.1,489.1z M378.2,482c1.1,0.3,2.4,0,3.4-0.6
				c1.2-0.8,2.1-2.1,2.4-3.5c0.6-2.9-0.9-5.7-3.5-6.3c-1.1-0.3-2.4,0-3.4,0.6c-1.2,0.8-2.1,2.1-2.4,3.5
				C374,478.6,375.6,481.4,378.2,482L378.2,482z"/>
		</g>
	</g>
</g>
<g id="note">
	
		<rect x="85" y="482.8" transform="matrix(0.9878 0.1559 -0.1559 0.9878 80.7384 -19.8268)" class="st10" width="163.5" height="43.9"/>
	<g>
		<g>
			<path d="M128.6,504.9l-6.8-1.6c1.1-4.3,0.1-8.3-2.7-10.5c-2.5-2.1-6.1-2.4-9.7-0.8c-1.1,0.5-2,2-3,3.6c-1.1,1.8-2.3,3.8-4.3,4.8
				l-2.1,1.1l-1.8-1.5c-1.3-1.1-1.6-2.3-1.1-8c0.3-2.7,0.8-6.6,2-10.1l6.7,2.2c-0.2,0.8-0.5,1.5-0.7,2.3c0.4-0.3,0.9-0.6,1.4-0.8
				c6.1-2.7,12.4-2.1,17,1.8C128.4,491.3,130.3,497.9,128.6,504.9z"/>
		</g>
		<g>
			<path d="M155,512.1c-6.5,0-13.9-2.6-16.8-7.5c-1.1-1.9-3.1-6.8,2.9-12.2c3-2.7,6.9-3.9,10.8-3.2l-1.2,6.9
				c-1.8-0.3-3.6,0.2-4.9,1.5c-2.3,2.1-1.8,3-1.6,3.4c1.7,2.9,9.7,5.2,14.6,3.5c2.2-0.8,2.6-2,2.3-3.6c-0.1-0.8-1.6-2.7-6.6-4.5
				l2.4-6.6c6.8,2.5,10.6,5.9,11.2,10.1c0.7,5.2-1.9,9.4-6.9,11.2C159.3,511.8,157.2,512.1,155,512.1z"/>
		</g>
		<g>
			<path d="M196.6,509c-5.1,0-12.1-2.2-16.9-5.5l4-5.8c4.3,3,11,4.7,14,4.2l1.2,6.9C198.2,509,197.4,509,196.6,509z"/>
		</g>
		<g>
			<path d="M194.9,524.5c-5.7-0.9-8.1-4.1-9.3-6.7c-4.6-10.5,6.8-27.7,6.9-27.8l5.8,3.9c-3.9,5.9-8.3,16.5-6.3,21.1
				c0.4,0.9,1.2,2.1,4,2.6L194.9,524.5z"/>
		</g>
		<g>
			<path d="M229.5,528c-2.7,0-5.6-0.8-8.2-2.3c-4-2.3-6.8-6-7.5-9.5c0-0.2-0.1-0.4-0.1-0.6c-1-0.3-2-0.5-2.9-0.8l2.2-6.6
				c0.5,0.2,1,0.3,1.5,0.4c1.9-6.7,7-8.7,11.2-8.2c5.4,0.6,11.7,5.4,11.5,10.5c-0.1,1.4-0.8,5.9-8.4,6.1c-2.6,0.1-4.9,0-7.1-0.1
				c0.7,1,1.8,2,3.2,2.9c2.3,1.3,4.7,1.7,6.6,1.1l2.2,6.6C232.4,527.8,231,528,229.5,528z M221.4,509.7c2.2,0.2,4.6,0.2,7.2,0.2
				c0.4,0,0.8,0,1.1-0.1c-1-1.1-3.3-2.6-5.4-2.6C223.7,507.3,222.3,507.3,221.4,509.7z"/>
		</g>
	</g>
</g>
<g id="LINE">
	
		<rect x="78.2" y="563.7" transform="matrix(0.9843 -0.1766 0.1766 0.9843 -99.6156 51.715)" class="st10" width="325.1" height="43.9"/>
	<g>
		<g>
			<path d="M115.3,624.3c-2.6,0-4.4-0.7-5.8-2.3c-5.8-7.1-7.4-18.6-8.3-24.8c-0.2-1.3-0.4-2.5-0.5-2.9l6.8-1.9
				c0.2,0.8,0.4,2,0.7,3.8c0.8,5.4,2.2,15.5,6.6,21.1c1,0.2,4.1,0,13.2-3.2l2.3,6.6C123.8,622.9,118.9,624.3,115.3,624.3z"/>
		</g>
		<g>
			<rect x="129.3" y="587.4" transform="matrix(0.9793 -0.2024 0.2024 0.9793 -116.8148 39.5231)" width="11.2" height="7"/>
		</g>
		<g>
			<path d="M137.3,612.7c-0.7-1.6-2.1-7.1-4.1-14.7c-0.8-3.1-1.6-6-1.8-6.8l6.7-2.1c0.3,0.9,0.9,3.3,1.9,7.2
				c1.2,4.7,3.3,12.5,3.8,13.7L137.3,612.7z"/>
		</g>
		<g>
			<path d="M154.7,612.9c-2.5-19-2.1-25.4,1.8-27.6c0.9-0.5,3.2-1.4,6.1,1c0.9,0.7,1.8,2.1,6.5,9.2c0.2,0.3,0.4,0.5,0.5,0.8
				c-0.3-5-0.7-10.6-1-14.9l7-0.5c0,0,0.5,6.7,0.9,13.4c1,15.3,1,15.3-0.7,16.6l-3.3,0.5c-1.6-0.6-2.2-1.3-9.3-12.1
				c-1-1.5-2.1-3.3-3.1-4.7c0,3,0.3,8.3,1.5,17.4L154.7,612.9z"/>
		</g>
		<g>
			<path d="M226,602.9c-0.2,0-0.3,0-0.5,0l0.3-7c1.8,0.1,4.6-1,5.3-1.9c-0.1-0.1-0.2-0.2-0.3-0.4c-0.8-0.8-2.4-1.1-4.2-1.5
				c-2.3-0.4-5.2-1-7.4-3c-2.8-2.7-3.5-6.4-1.8-10c2.5-5.2,9.6-9.4,14.9-8.7l-0.9,6.9c-2.2-0.3-6.5,2.1-7.7,4.8
				c-0.4,1-0.3,1.3,0.3,1.9c0.7,0.7,2.2,1,3.9,1.3c2.5,0.5,5.6,1,8,3.5c3.3,3.5,2.3,6.7,1.7,8C235.7,600.9,229.8,602.9,226,602.9z"
				/>
		</g>
		<g>
			<path d="M246.2,583.1l-1.9-6.7c1.3-0.4,3.4-0.8,5.8-1.2c2.9-0.5,7.3-1.4,8.6-1.9l2.8,6.4c-1.9,0.8-5.2,1.5-10.1,2.4
				C249.3,582.4,247.1,582.8,246.2,583.1z"/>
		</g>
		<g>
			<path d="M253.2,596c-4.1-4.2-3.9-11.5-3.7-18.1c0.1-2.5,0.1-4.9-0.1-6.4l6.9-1c0.3,2.2,0.2,4.8,0.1,7.6
				c-0.1,4.6-0.3,10.9,1.7,12.9L253.2,596z"/>
		</g>
		<g>
			<path d="M276.3,589.6c-2.5,0-4.8-1.2-6.5-3.5c-3.2-4.2-4.3-12-0.9-16.7c1.1-1.5,4.3-4.7,10.4-2.5l-2.4,6.6
				c-1.8-0.7-2.2-0.2-2.3,0c-1.1,1.5-0.9,6,0.8,8.2c0.6,0.8,0.9,0.8,1.2,0.7c0.6-0.5,1.6-2.6,2.1-3.8c1.5-3.1,3-6.3,6.2-6.6
				c4.4-0.5,6,3.3,6.6,5c0.1,0.2,0.2,0.4,0.3,0.6c0.8-0.3,2.3-1.3,5.1-3.7l4.6,5.3c-5.2,4.6-8.6,6.2-11.6,5.5
				c-2.5-0.6-3.6-2.4-4.4-4c-0.2,0.3-0.3,0.6-0.4,0.9c-1.4,3-2.9,6.2-5.8,7.3C278.3,589.4,277.3,589.6,276.3,589.6z M276.5,582.6
				L276.5,582.6L276.5,582.6z"/>
		</g>
		<g>
			<path d="M308.9,576.2c-1,0-2.2-0.4-3.2-1.5c-1.6-1.7-4.5-8-3.2-10.8l4.6,2.2c1.5-3.6,4.1-5.9,7.7-6.9c3.6-1,5.8,0.8,7.2,3
				c1-2.2,3-4.4,7.1-5.5c5.9-1.6,9,2.7,10.7,5c0.4,0.5,1,1.3,1.4,1.7c0.3-0.1,0.8-0.5,1.7-1.3l4.9,5c-1.6,1.6-4.1,3.6-7.2,3.4
				c-3.2-0.3-5-2.7-6.4-4.6c-1.9-2.5-2.3-2.7-3.3-2.4c-2.4,0.7-2.7,1.6-3.3,3.8c-0.5,1.8-1.1,4.2-3.6,5.7c-1,0.6-2.3,0.8-3.4,0.4
				c-2-0.7-2.7-2.7-3.3-4.6c-0.2-0.7-0.7-2-1.1-2.7c-2.5,0.9-3.2,3.5-3.6,6.1c-0.1,1-0.4,2.8-2.3,3.6
				C310,576.1,309.5,576.2,308.9,576.2z M309.1,565.7L309.1,565.7z"/>
		</g>
		<g>
			<path d="M359.1,583.8c-2.7-10.1-5.8-20.2-9.1-30l6.6-2.2c3.3,9.9,6.4,20.2,9.2,30.4L359.1,583.8z"/>
		</g>
		<g>
			<path d="M367.4,569.7c-1.4,0-2.9-0.3-4.5-0.8l2.3-6.6c2.5,0.9,4.2,0.4,5.4-1.6c1.8-2.9,1.5-7.8-0.5-9.8c-2.1-2-6.1,0.1-8.2,1.5
				l-3.9-5.8c9.4-6.3,15-2.7,17-0.8c4.4,4.2,5.2,12.7,1.6,18.5C374.4,567.8,371.2,569.7,367.4,569.7z"/>
		</g>
		<g>
			<rect x="135.1" y="609.6" transform="matrix(0.9793 -0.2024 0.2024 0.9793 -121.1794 41.1617)" width="11.2" height="7"/>
		</g>
		<g>
			<path d="M186.7,586.6l-1-6.9c5.8-0.8,10.8-1.5,14.8-1.9l0.7,7C197.3,585.2,192.5,585.8,186.7,586.6z"/>
		</g>
		<g>
			<path d="M195.6,609.2c-2.6,0-4.8-0.5-6.7-1.9c-5-3.5-5.7-10.5-7-24.4c-0.1-1.4-0.3-2.8-0.4-4.3l7-0.7c0.1,1.5,0.3,3,0.4,4.3
				c1,10.3,1.7,17.7,4.1,19.3c2,1.4,7.4,0.1,11.4-1l1.8,6.8C202.1,608.5,198.6,609.2,195.6,609.2z"/>
		</g>
		<g>
			<path d="M193.1,595.8l-1-6.9l1.4-0.2c2.3-0.3,7-1,8-1.1l1.1,6.9c-1,0.2-4.7,0.7-8.1,1.1L193.1,595.8z"/>
		</g>
	</g>
</g>
<g id="Twitter">
	
		<rect x="96.1" y="674.5" transform="matrix(0.9938 0.1116 -0.1116 0.9938 78.9563 -17.5949)" class="st10" width="201.1" height="43.9"/>
	<g>
		<g>
			<path d="M120.4,686.3l-2-0.1c-5.2-0.3-10.5-0.6-15.8-2l1.8-6.8c4.6,1.3,9.5,1.5,14.3,1.8l2,0.1L120.4,686.3z"/>
		</g>
		<g>
			<path d="M119.9,708.1c-4.9,0-7.9-2.3-9.6-4.5c-7.5-9.5-2.1-31.5,0.1-35.5l6.2,3.3c-1.5,2.8-5.7,21.6-0.8,27.9
				c0.9,1.2,2.7,2.6,7.3,1.4l1.8,6.8C123.1,707.9,121.4,708.1,119.9,708.1z"/>
		</g>
		<g>
			<path d="M155.1,708.7c-1.8,0-4.3-0.7-6.6-3.8c-0.7-0.9-1.4-2-1.9-3.2c-1.8,3-4,5.1-6.9,5.1c-4.9-0.1-7-6.5-7.8-8.9s-1-4.5-1.1-7
				c-0.1-1.9-0.1-4,0-6l7,0.4c-0.1,1.8-0.1,3.6,0,5.3c0.1,1.9,0.2,3.4,0.8,5c0.6,1.8,1.1,2.8,1.5,3.5c1.3-1.8,2.9-5.7,3.5-7.4
				c1.3-3.3,2.5-6.3,5.9-5.3c1.6,0.5,3.3,2,2.4,6c0,0,0,0,0,0.1c0.2,4.7,1.3,7,2.1,8c0.8,1,1.2,1.1,1.2,1.1c0.3-0.1,1.5-1,2.8-3.4
				c0.4-0.8,0.8-1.7,1.2-2.5c0.6-1.3,1.2-2.7,2-4l6.1,3.5c-0.6,1-1.1,2.1-1.6,3.3c-0.4,0.9-0.9,1.9-1.4,2.9c-1.6,3-4.3,6.8-8.4,7.1
				C155.5,708.7,155.3,708.7,155.1,708.7z M151.7,692.2C151.7,692.3,151.7,692.3,151.7,692.2C151.8,692.3,151.8,692.3,151.7,692.2z"
				/>
		</g>
		<g>
			<rect x="175.8" y="680.1" transform="matrix(0.1437 -0.9896 0.9896 0.1437 -522.3019 763.622)" width="8.6" height="7"/>
		</g>
		<g>
			<path d="M177.3,709.6c-0.4-3.9-0.6-6.6-0.7-9.5c-0.1-2.1-0.2-4.2-0.4-6.9l7-0.6c0.2,2.8,0.4,5,0.5,7c0.1,2.8,0.3,5.4,0.7,9.2
				L177.3,709.6z"/>
		</g>
		<g>
			<path d="M205.7,694.2c-2.5-0.1-13.8-2.2-16.3-3.2l2.6-6.5c1.6,0.7,12.1,2.6,14.1,2.7L205.7,694.2z"/>
		</g>
		<g>
			<path d="M199,715.7c-12.5-6.6-7-24-3.7-34.4c0.8-2.4,1.4-4.4,1.7-6l6.8,1.5c-0.4,1.8-1.1,4-1.9,6.6c-3.6,11.3-6.4,22.6,0.3,26.1
				L199,715.7z"/>
		</g>
		<g>
			<path d="M229.1,696.6c-0.1,0-15.6-2.2-18.8-4l3.4-6.1l-0.1,0c1.8,0.8,13,2.8,16.3,3.2L229.1,696.6z"/>
		</g>
		<g>
			<path d="M217.9,715.6c-9.9-7.9,2.5-35.6,2.6-35.9l6.3,3c-4.6,9.9-7.7,25-4.6,27.5L217.9,715.6z"/>
		</g>
		<g>
			<path d="M246.4,718.8c-5.8,0-10.1-3-11.5-8.4c-1.9-6.9,1.6-15.2,7.5-17.8c3.9-1.8,7.7-1.6,10.5,0.5c2.3,1.8,3.5,4.6,3.1,7.5
				c-0.4,3-2.6,5.5-5.8,6.6c-2.7,1-5.9,0.8-8.8-0.1c0,0.5,0.1,1,0.2,1.5c0.3,0.9,1,3.7,6,3.1l0.8,7
				C247.8,718.8,247.1,718.8,246.4,718.8z M243.5,700.5c1.7,0.5,3.3,0.6,4.3,0.2c0.8-0.3,1.2-0.7,1.3-1.1c0.1-0.3-0.1-0.6-0.4-0.9
				c-0.7-0.5-1.9-0.4-3.4,0.3C244.7,699.3,244.1,699.8,243.5,700.5z"/>
		</g>
		<g>
			<path d="M267.8,719.1c-0.4,0-0.9-0.1-1.3-0.3c-2.6-1-2.5-2.7-2.2-8.9c0.1-2.4,0.3-5.3,0.4-8.6c0-0.7,0.1-1.4,0.1-2
				c0.1-1.9,0.3-3.5-0.5-6.8l6.8-1.5c1,4.3,0.8,6.7,0.6,8.8c0,0.5-0.1,1.1-0.1,1.7c0,0.3,0,0.5,0,0.8c1-0.9,2.1-1.8,3.3-2.4
				c2.3-1.2,6.3-1.6,9.4,0.3c2.5,1.5,4,4.1,4.2,7.4l-7,0.4c-0.1-1.3-0.5-1.6-0.7-1.7c-0.8-0.5-2.3-0.3-2.8-0.1c-3,1.5-5.2,6.6-6.2,9
				c-0.5,1.3-0.8,2-1.3,2.6C269.9,718.7,268.9,719.1,267.8,719.1z"/>
		</g>
	</g>
</g>
</svg>
