<?xml version="1.0" encoding="utf-8"?>
<!-- Generator: Adobe Illustrator 24.1.2, SVG Export Plug-In . SVG Version: 6.00 Build 0)  -->
<svg version="1.1" id="date" xmlns="http://www.w3.org/2000/svg" xmlns:xlink="http://www.w3.org/1999/xlink" x="0px" y="0px"
	 viewBox="0 0 994.26 865.74" style="enable-background:new 0 0 994.26 865.74;" xml:space="preserve">
<style type="text/css">
	.st0{fill:#FFE200;}
	.st1{display:none;fill:#FFE200;}
	.st2{fill:#FFFFFF;}
	.st3{fill:none;stroke:#FF5E5E;stroke-width:5;stroke-linecap:round;stroke-linejoin:round;}
	.st4{fill:none;stroke:#6D00FF;stroke-width:5;stroke-linecap:round;stroke-linejoin:round;}
	.st5{fill:none;stroke:#000000;stroke-width:5;stroke-linecap:round;stroke-linejoin:round;}
	.st6{fill:none;stroke:#FFE200;stroke-width:5;stroke-linecap:round;stroke-linejoin:round;}
	.st7{fill:none;stroke:#FFFFFF;stroke-width:5;stroke-linecap:round;stroke-linejoin:round;}
	.st8{fill:none;stroke:#FF5E5E;stroke-width:5;}
	.st9{fill:none;stroke:#6D00FF;stroke-width:10;}
</style>
<g id="sikaku">
	<polygon class="st0" points="964.32,667.29 32.92,786.28 32.92,245 964.32,126.02 	"/>
</g>
<g id="body">
	<g>
		<path class="st1" d="M444.84,216.28c9.32,0.8,34.4-14.81,45.23-22.07c33.48-22.46,44.56-37.73,83.46-34.97
			c20.74,1.47,42.35,15.69,64.39,11.8c34.06-6,59.85-29.07,92.68-39.49c59.38-18.86,57.53,6.25,92.68,8.74
			c30.29,2.15,93.14-60.35,126.82-10.79c25.4,37.38-5.66,74.28,2.93,115.24c3.9,18.57,17.35,38.71,12.94,65.66
			c-4.98,30.4-26.97,43.61-21.72,73.83c4.89,28.13,23.76,56.42,11.71,86.68c-14.77,37.06-13.92,57.57-16.47,78.68
			c-3.88,32,32.45,50.83,7.67,96.04c-13.98,25.51-40.27,34.47-65.66,33.92c-16.13-0.35-43.08-11.37-60.12-5
			c-20.44,7.65-36.37,24.01-51.75,31.79c-20.66,10.45-68.18,18.5-89.38,19.24c-39.03,1.37-69.81-11.4-110.61,1.55
			c-60.96,19.36-79.42,46.12-144.38,25.46c-44.63-14.19-8.21-53.2-14.63-77.49c-7.23-27.31-30.92-39.71-25.36-73.66
			c5.75-35.1,25.91-73.23,18.54-108.41c-1.35-6.45-1.78-13.17-2.93-19.74c-3.28-18.9-22.22-17.11-16.58-62.67
			c3.38-27.37,22.48-43.7,24.39-53.5c5.31-27.18-8.94-44.08-20.49-64.88c-11.27-20.3-0.36-63.47,21.3-73.53
			C431.13,208.67,435.52,215.49,444.84,216.28z"/>
		<path class="st2" d="M742.39,236.57l-13.15-1.98c0,0,24.32,36.23,51.61,38.96s50.62-10.92,50.62-10.92s5.71-3.72,5.96-6.7
			s-7.2-6.2-7.2-6.2s12.29-5.32,21.32,7.41s20.12,25.25,20.12,25.25s24.23,8.83,32.64,20.33c8.42,11.5,10.06,34.29,11.09,43.11
			c1.03,8.83,7.8,33.26,6.16,41.88s-10.06,11.91-12.11,19.3c-2.05,7.39,3.62,18.99,3.62,18.99s-9.78,2.15-16.15,2.56
			c-6.36,0.41-13.14-1.44-13.14-1.44l4.72-13.14c0,0-2.46-4.52-18.48,0.41c-16.01,4.93-31.62,10.27-36.75,6.36
			c-5.13-3.9-6.98-5.75-6.98-5.75l-13.64,56.22l-24.89,7.17c0,0-54.41-8.22-69.38-15.4c-14.97-7.17-40.49-17.08-47.66-27.84
			s-15.82-21.51-15.82-21.51s6.33-5.27,2.11-13.29c-4.22-8.01-5.06-13.5-2.53-16.45c2.53-2.95,5.48-2.11,5.48-2.11
			s-12.44-22.35-9.91-29.1s5.69-17.72,5.69-17.72l25.61-34.77c0,0-3.66-34.74-4.14-37.44c-0.48-2.71,27.41-41.27,27.41-41.27
			l38.72,7.33l5.74,3.98L742.39,236.57z"/>
		<path class="st2" d="M665.81,342.12c0,0-20.93-25.44-26.88-29.13s-19.29-9.03-21.54-14.57s-6.16-11.08-7.39-16.62
			c-1.23-5.54-1.64-9.03,5.13-10.05c6.77-1.03,12.72-2.05,12.72-2.05s15.18-32.42,29.96-41.24c14.77-8.82,24-13.95,41.65-9.44
			c17.64,4.51,20.11,26.88,20.11,26.88L665.81,342.12z"/>
		<path class="st3" d="M874.73,505.22c23.96-12.56,48.11-15.29,76.23-15.29"/>
		<path class="st3" d="M844.48,541.81c14.13,11.98,44.1,7.57,54.61-8.19c2.09-3.13,4.2-9.16-1.09-10.92
			c-9.82-3.27-17.97,7.64-27.3,7.64"/>
		<path class="st3" d="M840.65,567.47c8.38,4.15,17.34,7.37,25.12,12.56"/>
		<path class="st3" d="M806.78,592.61c13.31,14.92,65.75,45.91,86.28,32.22"/>
		<path class="st3" d="M880.55,601.97c18.25,1.68,28.53,12.69,40.41,24.57"/>
		<path class="st3" d="M800.26,606.05c6.15,9.64,11.59,19.72,18.87,28.52"/>
		<path class="st3" d="M759.74,666.16c15.86-11.25,35.43-8.54,52.27-15.48"/>
		<path class="st3" d="M876.08,273.12c31.39,4.63,61.42,24.07,82.09,40.31"/>
		<path class="st3" d="M899.11,478.78c19.93-3.51,37.86-1.5,56.66,1.38"/>
		<path class="st3" d="M856.18,591.01c26.3,6.46,55.01-3.38,73.86-22.2"/>
		<path class="st3" d="M923.61,606.31c8.83,7.14,9.99,17.4,13.79,26.89"/>
		<path class="st3" d="M581.16,292.41c5.16-5.16,11.47-8.19,19.81-9.9"/>
		<path class="st3" d="M932.19,466.5c9.46,0,18.77,0,27.69-6.82"/>
		<path class="st3" d="M737.27,235.93c-2.38-0.34-4.84-0.59-6.96-1.46"/>
		<path class="st4" d="M737.26,245.37c14.09,17.31,36.93,30.2,60.36,27.35c11.39-1.39,27.86-3.36,39.23-14.18"/>
		<path class="st5" d="M832.13,248.76c18.68-1.18,19.92,9.19,28.86,21.13c3.38,4.51,7.55,8.04,11.46,11.96
			c2.29,2.29,5.81,2.9,8.58,4.43c17.78,9.8,33.94,20.37,34.21,42.37"/>
		<path class="st6" d="M893.46,315.97c-22.78,5.62-70.43,54.3-63.89,74.24"/>
		<path class="st4" d="M842.82,406.39c26.33-5.46,41.94,0.79,61.63,16.83"/>
		<path class="st5" d="M915.7,342.34c0.4,5.45,1.15,10.83,2.09,16.2c1.15,6.62,5.74,27.55,3.11,33.66
			c-6.27,14.58-14.74,9.93-10.48,27.91"/>
		<path class="st4" d="M851.89,362.69c11.21-5.25,23.37-11.84,30.72-21.99"/>
		<path class="st5" d="M809.74,326.48c0.93,19.1,2.24,37.32,11.47,54.23"/>
		<path class="st5" d="M829.57,397.59c2.73,5.77-7.05,10.32-4.8,15.72c7.68,18.41,44.26,1.9,56.99-0.96"/>
		<path class="st3" d="M825.84,426.81c-4.3,9.78-7.23,25.48-9.53,32.87"/>
		<path class="st5" d="M887.01,421.37c-10.13,23.97-15.34,49.55-23,74.23c-2.52,8.1-1.2,20.86-9.57,25.78
			c-7.33,4.31-53.45,1.68-64.33,1.55"/>
		<path class="st4" d="M743,228.79c-16.5,1.07-45.95-13.93-59.86-11.11c-31.57,6.4-45.97,32.98-58.99,57.76"/>
		<path class="st5" d="M617,272.36c-13.46,2.23-5.89,11.14-2.09,18.11c1.22,2.23-0.22,5.6,1.13,7.39
			c8.11,10.84,26.03,13.76,33.98,28.34"/>
		<path class="st4" d="M645.27,267.45c2.44,0.15,3.98,2.62,6.04,3.66c8.81,4.45,14.65,7.86,15.66,18.57
			c0.24,2.59-0.16,11.28-5.47,8.88c-9.2-4.15-7.25-15.05-18.74-16.8"/>
		<path class="st6" d="M641.27,294.48c3.65,6.33,13.63,14.35,23.11,14.88"/>
		<path class="st6" d="M757.41,281.85c27.3,7.9,61.15,5.91,85.81-8.58"/>
		<path class="st6" d="M797.02,340.26c0.39,3.81,7.36,15.19,9.21,18.59"/>
		<path class="st3" d="M825.84,474.91c-3.38-0.99-6.8-2.77-10.43-2.73c-9.62,0.1-20.3,5.64-29.84,7.22
			c-21.79,3.6-42.36,8.07-64.13,12.24c-12.85,2.46-23.36,7.49-35.88,10.39"/>
		<path class="st4" d="M673.04,521.46c12.34-9.78,48.9-21.76,64.38-17.14c8.4,2.51,13.92,10.22,22.03,12.84
			c2.97,0.96,6.17-0.34,9.21,0.64c9.33,3.02,19.53,15.96,23.37,24.05"/>
		<path class="st5" d="M668.64,526.38c-26.81,29.76-35.62,69.36-55.95,102.55c-7.13,11.64-19.61,20.22-23.92,33.29"/>
		<path class="st4" d="M742.06,571.44c-1.96-6.48-3.74-20.03-11.94-22.69c-5.48-1.77-7.59,15.2-6.76,18.32
			c2.42,9.19,9.49,18.02,13.63,26.74c3.34,7.04,8.31,32.79,9.4,41.28"/>
		<path class="st5" d="M702.61,590.41c-1.59,8.06-0.51,1.57,0.21,19.38c0.66,16.28,4.32,32.14,6.6,48.28
			c0.35,2.48,10.62,39.34,12.22,36.51"/>
		<path class="st4" d="M818.48,390.91c-16.36-17.59-29.2,2.75-17.41,9.57c1.95,1.13,8.61-2.88,10.76-3.36
			c2.63-0.59,6.05,0.09,8.73,0.5"/>
		<path class="st5" d="M633.54,395.19c23.87,15.41,26.64,57.33,34.13,82.14c1.85,6.14,5.26,13.87,5.36,20.31"/>
		<path class="st5" d="M498.67,302.19c18.25-10.44,51.02-18.89,70.02-9.35c13.59,6.82,27.31,36.09,30.33,48.71"/>
		<path class="st6" d="M671,248.31c4.91,18.41,11.44,38.27,8.35,57.84"/>
		<path class="st5" d="M671.47,312.18c-10.46,16.4-28.34,40.58-17.22,60.96c2.69,4.77,6.32,8.9,9.05,13.64"/>
		<path class="st5" d="M669.33,399.54c6.57,13.77,15.6,26.68,28.86,34.65"/>
		<path class="st5" d="M662.19,422.35c8.69,14.75,20.56,28.01,37.01,33.92"/>
		<path class="st5" d="M810.74,414.45c-10.9,3.81-22.84,6.37-34.45,6.23"/>
		<path class="st6" d="M749.24,419.91c4.21,6.4,50.27,16.66,44.45,24.68c-3.46,4.77-57.56,1.68-67.53-5.25"/>
		<path class="st4" d="M750.07,400.63c7.07,8.27,16.99,10.12,27.06,11.65"/>
		<path class="st5" d="M812.58,428.16c-14.98-2.44-12.66,6.88-3.96,14.23"/>
		<path class="st5" d="M737.82,457.91c17.25,6.46,39.52-6.78,55.46,5.65"/>
		<path class="st5" d="M545.13,375.21c19.07,39.07,33.65,96.92,63.94,133.32"/>
		<path class="st5" d="M556.56,334.68c4.76,17.59,8.26,37.68-1.33,53.4"/>
		<path class="st4" d="M711.72,459.45c23.55,9.7,39.73,18.33,65.79,17.54"/>
		<path class="st4" d="M719.09,469.23c-2.23,7.21,8.69,22.21,9.97,8.42"/>
		<path class="st5" d="M738.29,476.56c1.67,2.02,2.33,4.51,3.03,6.86"/>
		<path class="st4" d="M697.42,462.5c-5.75,7.42-9.38,18.55-19.19,21.29"/>
		<path class="st5" d="M681.55,463.71c-2.82,2.73-6.01,4.62-9.77,5.79"/>
		<path class="st3" d="M624.5,318.76c-9.45,47.33-32.98,82.88-14.95,128.89c5.66,14.44,31.51,64.58,31.65,75.29"/>
		<path class="st3" d="M675.92,505.78c-11.37,4.76-28.14,15.85-30.07,42.05"/>
		<path class="st5" d="M608.86,578.4c4.62-2.98,8.66-1.25,12.84,1.31"/>
		<path class="st5" d="M600.28,596.55c-8.36,8.31-4.27,23.71,2.63,33.41"/>
		<path class="st5" d="M621.02,587.1c1.53,3.79,2.4,7.75,2.83,11.88"/>
		<path class="st4" d="M767.67,559.71c7.31,12.04,27.31,47.29,17.35,61.04c-5.41,7.46-15.07,7.24-21.42,16.9"/>
		<path class="st5" d="M755.31,575.25c1.35,24.56,1.63,50.27-5.9,74.33c-4.12,13.16-18.48,24.42-17.08,46.71"/>
		<path class="st5" d="M790.26,602.71c9.35-13.8,12.9-36.09,6-51.83"/>
		<path class="st5" d="M832.1,529.01c0.03,16.47-12.77,14.43-18.72,25.36c-2.14,3.92-0.26,9.08-2.36,12.61
			c-1.42,2.38-4.6,3.45-6.27,5.53"/>
		<path class="st4" d="M560.47,393.89c2.85-0.22,10.2-0.05,12.53-1.33c3.3-1.81,4.26-6.28,8.76-9.3c9.15-6.13,9.91,13.69,0.56,18.81
			c-2.6,1.43-12.1,1.12-15.34,1.59"/>
		<path class="st5" d="M575.18,432.57c5.82,5.4,13.32,8.02,18.8,13.74"/>
		<path class="st5" d="M458,599.01c3.91-14.15,54.11-43.35,67.77-37.84c7.81,3.15,19.27,10.28,27.96,9.04
			c11.42-1.64,43.54-24.73,48.94-33.71"/>
		<path class="st5" d="M613.55,522.2c-3.57,18.79-13.27,37.35-24.43,52"/>
		<path class="st5" d="M491.79,307.03c-13.68,33.58-16.98,72.1-16.07,111.44"/>
		<path class="st5" d="M584.8,334.31c2.02,10.79,2.2,23.43-0.63,34.09"/>
		<path class="st5" d="M602.01,353.05c2.67,6.55,4.67,13.48,5.42,20.42"/>
		<path class="st4" d="M655.43,384.44c-8.95,4.87,11.5,22.78,0.82,29.2"/>
		<path class="st4" d="M714.42,406.56c-44.79-22.64-28.85,4.31-19.48,9.32"/>
		<path class="st4" d="M525.19,540.12c1.63-5.42,2.45-10.94,3.81-16.38c15.55-62.2,21.54,15.95,23.62,30.48"/>
		<path class="st4" d="M551.7,322.58c-22.57-18.88-1.74,36.45-1.08,41.72"/>
		<path class="st4" d="M663.03,698.3c2.2-10.83,3.43-21.9,6.03-32.54c18.91-77.55,19.35,16.28,24.37,28.89"/>
		<path class="st7" d="M628.39,638.99c-8.24,16.49-22.63,29.16-33.75,43.06"/>
		<path class="st4" d="M528.43,344.44c3.2,3.01,5.59,6.54,6.3,10.8"/>
		<path class="st3" d="M438.75,506.82c-15.96,33.46-27.56,61.67-29,85.05c-1.64,26.7-0.14,103.88,10.04,143.35"/>
		<path class="st3" d="M428.79,670.53c18.99-11.89,35.01-12.92,50.44-5.43"/>
		<path class="st3" d="M433.16,613.6c9.39,19.1,21.18,30.48,40.04,37.13"/>
		<path class="st4" d="M586.26,579.54c-2.2,5.08-5.9,8.62-9.7,12.41"/>
		<path class="st4" d="M467.97,392c-8.66,36.41-24.05,159.5-16.21,201.76c1.88,10.11,12.72,20.76,18.98,24.81"/>
		<path class="st5" d="M479.11,620.89c4.68,1.41,19.07,2.59,23.38,0"/>
		<path class="st3" d="M638.2,528.56c-4.49,10.92-36.62,38.03-37.4,46.33c-1.1,11.65,11.64,28.29,12.65,41.68"/>
	</g>
</g>
<g id="sune2">
	<path class="st3" d="M506.42,569.67c0.75,7.52,0.75,8.61,1.6,16.07"/>
</g>
<g id="sune1">
	<path class="st5" d="M567.05,565.54c-0.14,3.79-0.28,7.58-0.42,11.37"/>
</g>
<g id="asi_1_">
	<g id="asi">
		<path class="st2" d="M500.58,593.92l-1.44,3.51c0,0,14.23,21.86,12.99,25.37s-1.86,7.01-1.86,7.01s22.48-3.09,31.55,1.24
			s11.55,9.07,12.37,16.29c0.83,7.22-0.41,8.87-0.41,8.87l16.5-1.03c0,0-4.95-26.81-2.47-30.32c2.47-3.51,4.33-6.39,4.33-6.39
			l-6.39-11.34c0,0,6.81-15.67,4.74-21.04c-2.06-5.36-14.64-8.04-28.05-5.36C529.05,583.4,500.58,593.92,500.58,593.92z"/>
		<path class="st0" d="M466.66,734.61c0,0-12.32,14.47-22.63,19.86c-10.32,5.39-20.78,11.08-26.48,22.63s-4.77,16.63-4.77,16.63
			s-1.69,4.77-1.23,9.08s3.23,10.16,3.23,10.16s19.86,19.71,41.72,18.94s44.65-10.47,50.5-17.86c5.85-7.39,6.16-10.16,6.16-10.16
			s17.43-14.3,25.47-26.57s23.18-12.95,34.9-15.54c11.72-2.59,17.86-3.41,19.9-6.68c2.04-3.27,3.82-18.81,4.5-27.27
			c0.68-8.45-4.91-13.5-6.68-22.36C589.48,696.62,466.66,734.61,466.66,734.61z"/>
		<path class="st5" d="M503.22,593.91c11.79-4.82,55.18-18.75,66.52-7.59c2.7,2.66-1.75,19.16-2.9,22.8
			c-0.43,1.37,4.8,8.1,5.22,10.43c0.39,2.15-3.01,4.68-3.49,6.88c-1.27,5.78,1.35,27.51,2.91,33.25"/>
		<path class="st5" d="M531.07,613.92c7.21-2.07,14.72-3.77,22-5.39"/>
		<path class="st5" d="M488.9,643.7c1.81,9.01,9.61,16.5,11.75,25.61"/>
		<path class="st5" d="M502.18,601.75c4.97,6.78,6.55,14.34,8.78,22.1"/>
		<path class="st5" d="M495.2,674.48c-5.23,5.71-7.77,12.85-10.01,20c-5.44,17.37-10.3,32.8-23.36,46.67
			c-15.5,16.46-42.6,21.05-47.99,52"/>
		<path class="st4" d="M416.17,806.57c28.04,23.21,75.53,14.31,99.44-2.57c9.98-7.04,19.79-23.82,29.48-30.38
			c13.13-8.89,29.53-10.58,44.19-15.92"/>
		<path class="st5" d="M576.28,656.51c11.67,9.64,7.19,22.51,10.49,34.61c8.21,30.11,15.36,24.91,9.25,60.03"/>
		<path class="st5" d="M415.44,812.31c19.33,23.71,64.68,26.39,93.31,1.44"/>
		<path class="st3" d="M590.24,731.42c-4.04,2.59-8.37,4.76-12.62,6.89c-9.94,4.99-19.81,6.41-29.23,12.79
			c-21.25,14.38-15.9,33.83-57.06,46.29"/>
		<path class="st3" d="M423.95,796.46c18.76,8.12,44.54,9.44,60.34,2.9"/>
		<path class="st3" d="M561.1,657.09c-9.77-0.53-13.66,5.05-20.19,8.97"/>
		<path class="st5" d="M567.77,669.21c-5.74,0.34-11.39,0.81-17.07,1.64c-5.56,0.81-12.1-1.58-17.36,1.06
			c-3.06,1.53-2.96,4.23-3.66,6.94c-4.61,17.92,21.44,32.18,39.01,32.82"/>
		<path class="st3" d="M547.01,678.64c9.73,0.23,18.91-0.87,28.24-2.65"/>
		<path class="st3" d="M552.6,711.94c-1.47,18.31-23.15,2.57-29.23,12.79c-2.72,4.57-3.56,10.24-6.12,15.05"/>
		<path class="st4" d="M493.54,635.1c18.33-9.49,59.14-11.86,61.68,13.57"/>
		<path class="st7" d="M526.56,637.16c0.46,7.82,2.21,20.25,0.62,22.67c-1.3,1.99-12.9-1.68-21.79,1.84"/>
		<path class="st5" d="M546.32,620.13c3.95-1.56,8.29-0.37,12.06,1.2"/>
		<path class="st3" d="M448.83,756.33c3.78-0.59,9.11-0.13,12.1-2.85c13.43-12.21,27.35-35.18,31.9-60.13"/>
		<path class="st5" d="M529.72,697.26c-0.43,3.15-0.48,7.02-3.25,9.1c-3.88,2.91-10.06-2.45-12.68-0.49
			c-9.21,6.91-6.85,24.17-11.05,33.63c-2.74,6.17-10.99,10.92-9.75,18.36c1.34,8.06,14.36,6.88,12.03,15.43"/>
		<path class="st3" d="M496.85,781.33c-21.4,11.43-3.59-6.8-29.66,2.68"/>
		<path class="st7" d="M430.65,775.8c6.83,8.25,18.64,9.71,28.66,8.04"/>
		<path class="st3" d="M518.81,747.77c-0.35,6.46,5.26,10.36,6.67,15.99"/>
		<path class="st3" d="M585.83,705.58c-2.48,13.13-23.15,16.25-20.36,31.6"/>
		<path class="st4" d="M502.48,678.15c-15.21-1.89-22.51,11.82-33.39,19.6c-3.34,2.39-9.25,3.52-11.6,7.05
			c-4.79,7.18,0.91,12.55,8.47,11.6c12.82-1.6,16.11-20.08,26.02-26.02c2.7-1.62,5.83-2.5,8.31-4.23"/>
		<path class="st4" d="M507.19,680.97c-2.52,6.33,4.69,13.98,7.53,20.22c3.68,8.09,1.62,44.12,4.39,45.31
			c26.33,11.29,11.29-47.56,1.25-56.6"/>
		<path class="st4" d="M513.77,683.01c0.93,0.86,1.98,1.57,2.98,2.35"/>
		<path class="st4" d="M489.94,704.33c6.7-1.25,14.24-1.13,20.54,1.57"/>
		<path class="st4" d="M494.8,698.69c25.1,27.23,11.7,9.11-10.97,21.48"/>
		<path class="st4" d="M489.79,711.07c5.53,3.41,9.17,10.95,15.36,13.01"/>
		<path class="st4" d="M481.16,729.1c7.9,0.55,15.89-2.86,23.67-1.57"/>
		<path class="st4" d="M485.87,724.71c5.17,4.67,12.78,9.63,17.4,13.33"/>
		<path class="st4" d="M479.28,739.45c7.11-1.73,15.14,0.45,21.48,0.94"/>
		<path class="st4" d="M480.22,735.22c23.15,15.99,20.79,12.19,0.94,10.66c-19.09-1.47-10.13,4.13,1.57,7.05
			c2.59,0.65,7.41,1.69,8.94,2.04"/>
		<path class="st4" d="M493.69,676.53c-15.81-5.37-32.12,10.63-44.86-4.66"/>
		<path class="st4" d="M489.88,700c8.74-4.11,18.25-5.94,27.68-6.53"/>
	</g>
</g>
<g id="hear_x5F_under">
	<path class="st0" d="M710.01,150.29c-0.07-1.93,0.48-21.58,0.57-23.38c-2.99,3.52-8.73,24.87-16.14,32.34
		c-9.47,9.54-19.82,15.09-19.82,15.09l7.92,8.18c0,0,9.73-7.49,16.03-14.16C704.86,161.69,710.12,153.37,710.01,150.29z"/>
	<g>
		<path class="st5" d="M700.62,148.53c-5.22,8.68-13.94,22.5-24.92,24.85"/>
		<path class="st4" d="M704.8,157.74c-4.65,9.39-12.39,19.82-22.9,23.21"/>
	</g>
</g>
<g id="head">
	<path class="st0" d="M915.25,180.63c0,0-22.86-49.41-21.97-55.64c0.46-3.24-3.46-22.28-1.02-21.54
		c-5.88-40.68-29.33-55.47-47.54-65.62c-19.63-10.94-37.34-2.9-37.34-2.9s-6.88-4.52-34.23-2.26
		c-27.36,2.25-45.52,17.71-51.96,28.98c-6.44,11.26-14.87,33.79-16.8,46.35c-1.93,12.55,3.22,21.89,3.22,21.89
		s-0.23,24.68,2.06,34.85c0.11,0.49,0.9,26.07,0.9,26.07l8.37,23.69c0,0,40.06,19.24,79.99,26.13s139.09-25.21,139.09-25.21
		L915.25,180.63z"/>
	<path class="st5" d="M711.79,150.58c19.18,11.88-1.37,14.14,6.28,21.53"/>
	<path class="st4" d="M719.04,179.26c0.11,3.33,1.09,5.58,4.41,6.51"/>
	<path class="st3" d="M724.25,192.93c0.49,3.48-0.48,10.19,3.52,12.21c7.24,3.65,41.81-11.94,53.24-12.66"/>
	<g>
		<path class="st5" d="M739.04,122.44c10.5-5.77,24.57-7.62,32.44,2.7"/>
		<path class="st3" d="M739.02,113.63c3.88-2.51,7.46-2.51,11.77-2.33"/>
		<path class="st5" d="M734.43,116.34c0.6,2.81,2.14,5.04,4.81,5.64"/>
		<path class="st5" d="M742.7,115.28c0.12,1.83,1.17,3.11,2.62,3.77"/>
	</g>
	<path class="st5" d="M756.6,205.93c-0.36,9.68,3.41,26.47-13.75,31.05"/>
	<path class="st3" d="M719.73,130.51c-1.8,5.23-5.59,12.47-11.29,11.45"/>
	<path class="st3" d="M808.8,187.71c-2.77,19.05-7.04,53.68,16.6,61.33"/>
	<path class="st7" d="M741.23,68.93c-2.06,12.9-3.57,28.4,5.58,37.44"/>
	<path class="st4" d="M834.34,195.34c7.78,12,18.31,22.27,31.4,28.5"/>
	<path class="st5" d="M704.34,105.08c-2.72,9.78-0.18,18.58,2.77,27.54"/>
	<path class="st5" d="M710.57,174.62c1.2,12.57,0.45,27.89,8.37,38.48"/>
	<g>
		<path class="st5" d="M739.87,209.27c2.06,5.74,6.6,9.61,11.09,13.47"/>
		<path class="st4" d="M747.48,208.02c0.61,1.91,2.81,4.06,3.99,5.63"/>
	</g>
	<path class="st4" d="M811.63,35.6c46.12-9.21,80.24,40.82,80.74,80.89"/>
	<path class="st4" d="M733.54,98.51c10.58-4.83,28.36-8.29,37.43,1.06"/>
	<path class="st5" d="M716.95,70.47c15.3-28.63,48.4-46.41,80.05-35.65"/>
</g>
<g id="mouse">
	<path class="st3" d="M725.1,173.53c2.22-1.27,4.72-0.81,6.93,0.1"/>
</g>
<g id="mimi">
	<path class="st3" d="M805.2,125.51c18.17-9.47,27.15,19.55,11.99,29.18"/>
</g>
<g id="shitamabuta">
	<path class="st3" d="M745.57,142.86c5.35,5.22,12.57,4.15,18.85,1.05"/>
</g>
<g id="eye">
	<path class="st4" d="M760.33,123.46c-11.03,13.72,4.38,25.23,7.73,4.93"/>
</g>
<g id="hear9">
	<g>
		<path class="st5" d="M823.12,63.58c23.6,6.7,43.59,67.36,28.92,76.25"/>
		<path class="st4" d="M831.4,96.84c7.94,15.81,11.58,37.04,0.59,52.2"/>
		<path class="st5" d="M844.69,121.85c1.27,5.81,0.4,11.84-1.56,17.39"/>
	</g>
</g>
<g id="hear8">
	<g>
		<path class="st5" d="M719.63,86.06c-3.87,15.56-4.12,39.41,12.24,48.89"/>
		<path class="st5" d="M734.64,84.07c-5.4,10.74-10.89,28.82-6.95,40.4"/>
	</g>
</g>
<g id="hear7">
	<g>
		<path class="st5" d="M746.65,71.4c-5.82,19.12,23.98,63.25,43.52,62.97"/>
		<path class="st5" d="M775.28,86.43c5.31,18.64,17.11,38.5,34.71,48.69"/>
		<path class="st4" d="M780.45,118.3c4.16,5.96,8.24,8.95,13.42,11.17"/>
		<path class="st7" d="M760.92,52.01c-4.54,9.56-3.67,19.55-2.56,29.54"/>
		<path class="st7" d="M764.9,65.36c-0.17,2.28-0.28,4.5-0.28,6.82"/>
	</g>
</g>
<g id="hear6">
	<g>
		<path class="st5" d="M781.3,142.5c10.17,23.83,25.15,40.54,47.28,52.98"/>
		<path class="st5" d="M802.62,138.39c5.97,11.21,20.26,44.91,36.82,44.22"/>
		<path class="st7" d="M794.15,150.01c4.08,6.51,7.59,14.48,13.63,19.32"/>
	</g>
</g>
<g id="hear5">
	<g>
		<path class="st0" d="M721.19,65.36c0,0-9.22,7.98-20.13,16.94c-10.91,8.97-31.99,20.33-31.99,20.33s6.28-0.3,12.26,5.08
			s5.38,5.53,5.38,5.53s10.83-10.35,20.75-11.26C716.67,101.13,721.19,65.36,721.19,65.36z"/>
		<path class="st4" d="M709.78,75.17c-9.44,11.48-25.25,21.93-38.75,27.93"/>
		<path class="st7" d="M704.42,90.45c-7.15,6.14-13.55,13.77-22.93,15.91"/>
		<path class="st5" d="M687.92,112.46c3.9-1.91,7.08-5.08,10.49-7.73"/>
	</g>
</g>
<g id="hear4">
	<g>
		<path class="st5" d="M816.48,195.15c4.48,9.48,11.5,26.6,22.08,30.96"/>
		<path class="st4" d="M812.64,208.85c2.9,5.41,6.46,11.66,11.88,14.68"/>
	</g>
</g>
<g id="hear3">
	<g>
		<path class="st4" d="M847.42,153.8c11.14,19.83,27.46,48.78,53.58,50.76"/>
		<path class="st5" d="M853.19,196.19c8.76,10.79,20.63,20.09,34.47,23.2"/>
		<path class="st5" d="M879.73,208.97c4.82,4.1,10.74,5.1,16.84,5.53"/>
	</g>
</g>
<g id="hear1">
	<g>
		<path class="st4" d="M865.74,144.66c22.63,20.27,55.35,38.73,65.3,69.04"/>
		<path class="st5" d="M903.28,187.36c7.01,7.21,14.92,15.3,17.29,25.3"/>
	</g>
</g>
<g id="hear2">
	<path class="st0" d="M904.24,136.92c-8.43-4.92-34.57-26.76-35.33-35.89c-1.77,3.6-4.58,17.51-6.92,20.82
		c-3.41,4.81,2.81,15.48,2.81,15.48s11.99,7.57,10.86,7.57c3.43,2.06,28.84,17.29,45.05,24.43c17.41,7.67,22.96,2.73,22.96,2.73
		l4.78-21.21C948.47,150.85,926.51,149.91,904.24,136.92z"/>
	<g>
		<path class="st5" d="M867.86,99.04c12.63,24.82,49.62,53.68,80.61,51.8"/>
		<path class="st4" d="M886.72,136.04c12.6,10.33,37.14,24.39,55.69,23.21"/>
		<path class="st5" d="M903.31,158.63c10.26,6.77,27.07,16.76,40.38,13.42"/>
	</g>
</g>
<g id="title">
	<g id="karisaito">
		<path class="st8" d="M560.83,191.09c-5.94,9.95-13.91,16.05-20.93,16.86"/>
		<path class="st8" d="M552.87,205.34c-1.48,2.93-5.2,11.86-6.41,16.97"/>
		<path class="st8" d="M566.99,194.78c1.85,0.99,11.66,2.56,14.28,0.85"/>
		<path class="st8" d="M565.56,200.36c-2.44,5.89-8.81,19.65-13.47,22.69"/>
		<path class="st8" d="M568.51,204.46c18-1-1.41,17.52-7.37,18.91"/>
		<path class="st8" d="M565.41,210.95c0.33,6.76,6.91,10.2,11.44,10.07"/>
		<path class="st8" d="M587.14,203.58c6.87-0.77,18.32-3.56,25.52-6.47"/>
		<path class="st8" d="M594.89,194.98c0.31,4.55-0.97,12.56-1.9,17.12"/>
		<path class="st8" d="M604.41,193.3c-1.07,8.62,1.29,23.09-11.75,30.47"/>
		<path class="st8" d="M636.18,185.76c-3.78,7.04-13.53,20.71-19.15,23.82"/>
		<path class="st8" d="M629.15,203.86c0.89,1.86-0.81,12.38-1.95,15.57"/>
		<path class="st8" d="M649.26,178.61c-1.42,20.46-3.31,31.01-5.59,36.08"/>
		<path class="st8" d="M654.34,194.7c4.48,1.49,7.58,0.43,12.65-3.57"/>
	</g>
	<g>
		<path class="st9" d="M62.06,205.05c28.62,1.15,60.77-6.92,87.16-19.6"/>
		<path class="st9" d="M113.29,209.67c-9.02,11.26-27.99,25.07-41.31,32.29c0,0,1.67,24.15,0.18,47.03
			c-0.85,13.13-3.92,24.06-3.92,24.06"/>
		<path class="st9" d="M86.52,248.14c12.03-4.7,45.7-18.23,56.93-9.96c8.25,6.07-1.36,45.47-6.76,54.41"/>
		<path class="st9" d="M85.52,274.89c0,0,9.75-4.45,20.67-7.72s19.35-3.87,20.88-0.45c1.52,3.41-7.85,13.16-15.23,19.37
			c-18.47,15.53-32.54,27-32.54,27s16.05-6.36,34.81-10.56c18.76-4.2,30.97-1.68,30.97-1.68"/>
	</g>
	<g>
		<path class="st9" d="M166.26,182.53c0.16,11.5,5.48,19.56,11.89,25.27"/>
		<path class="st9" d="M166.08,229.1c2.17,6.07,8.34,11.52,13,13.47"/>
		<path class="st9" d="M158.75,297.18c9.4,1.85,13.38-12.69,16.1-21.25"/>
		<path class="st9" d="M183.76,278.69c2.43-6.79,8.22-16.87,13.72-20.34"/>
		<path class="st9" d="M190.65,194.94c8.27-1.99,18.35-7.54,26.47-11.54"/>
		<path class="st9" d="M189.39,210.72c0.93,8.12,1.03,29.52,0.22,33.6"/>
		<path class="st9" d="M194.03,221.16c0,0,13.94-14.19,21.73-9.59c3.9,2.31,4.16,15.75-2.13,23.22
			c-6.3,7.47-15.23,12.03-15.23,12.03l20.03-9.16"/>
		<path class="st9" d="M205.15,166.15c0,0,1.26,34.77,1.61,63.47c0.35,28.69-8.08,72.53-8.08,72.53"/>
		<path class="st9" d="M209.95,253.29c0,0,3.72,9,8.31,11.99c4.23,2.76,7.08,2.04,7.08,2.04"/>
		<path class="st9" d="M236.85,265.88c-2.17,9.26-8.17,18.97-13.97,24.95"/>
		<path class="st9" d="M247.42,262.88c1.14,2.44,5.95,9.62,13.33,12.19"/>
		<path class="st9" d="M219.54,168.32c0,0,8.61,4.88,18.37,5.04c11.17,0.18,16.06-7.86,17.01-1.59c0.91,6.01-4.81,9.61-11.14,14.99
			c-6.68,5.68-16.26,9.7-16.26,9.7l1.6,60.12"/>
		<path class="st9" d="M235.77,206.13c0,0,15.2-9,19.06-3.68c3.85,5.32-1.82,49.83-1.82,49.83"/>
		<line class="st9" x1="236.63" y1="224.44" x2="255.89" y2="215.82"/>
		<line class="st9" x1="237.01" y1="239.31" x2="252.24" y2="233.98"/>
		<path class="st9" d="M235.72,257.45c0,0,5.18-4.34,10.68-6.06c5.51-1.71,11.37-2.2,11.37-2.2"/>
	</g>
	<g>
		<path class="st9" d="M505.06,114.82c1.98,16.75-0.12,28.5-2.45,40.65"/>
		<path class="st9" d="M271.82,203.2c0,0,13.98,1.45,32.19-4.39c23.51-7.54,43.58-27.46,47.69-14.59
			c4.13,12.93-7.09,37.88-16.26,54.56c-9.17,16.67-23.5,34.1-23.5,34.1"/>
		<path class="st9" d="M317.38,155.3c-7.7,49.88-17.49,99.36-47.67,119.19"/>
		<path class="st9" d="M340.37,137.33c2.37,8.19,7.07,19.44,11.18,25.37"/>
		<path class="st9" d="M360.59,130.18c1.62,8.11,5.56,19.05,9.25,24.9"/>
		<path class="st9" d="M367.35,184.86c8.23,2.57,16.29-2.6,24.65-6.01"/>
		<path class="st9" d="M360.06,248.52c38.19,9.88,41.9-75.68,68.41-93.88"/>
		<path class="st9" d="M435.35,157.55c5.11-1,19.68-7.64,27.11-7.12"/>
		<path class="st9" d="M432.02,189.11c6.64-1.28,17.62-8.14,25.52-6.44"/>
		<path class="st9" d="M417.83,240.58c46.07,15.33,39.01-56.12,75.23-62.23"/>
		<path class="st9" d="M488.65,123.34c2.46,13.62-1.47,29.96-2.31,34.26"/>
		<path class="st9" d="M533.02,164.54c-16.25,28.27-34.23,38.24-45.49,45.57"/>
		<path class="st9" d="M516.66,204.21c0.36,16.1-1.18,23.27-5.28,31.69"/>
	</g>
</g>
<g id="Twitter">
	<g>
		<g>
			<path d="M120.41,686.33l-2-0.11c-5.15-0.28-10.48-0.57-15.8-2.03l1.85-6.75c4.59,1.26,9.54,1.53,14.33,1.79l2.03,0.11
				L120.41,686.33z"/>
		</g>
		<g>
			<path d="M119.95,708.08c-4.9,0-7.89-2.29-9.63-4.51c-7.52-9.55-2.05-31.47,0.12-35.52l6.17,3.31
				c-1.53,2.85-5.73,21.59-0.79,27.87c0.92,1.17,2.69,2.59,7.35,1.37l1.77,6.77C123.09,707.87,121.43,708.08,119.95,708.08z"/>
		</g>
		<g>
			<path d="M155.06,708.71c-1.82,0-4.29-0.73-6.65-3.75c-0.73-0.93-1.36-2-1.87-3.2c-1.75,2.95-3.96,5.12-6.94,5.07
				c-4.9-0.14-7.03-6.49-7.83-8.88s-1.03-4.51-1.12-6.96c-0.07-1.91-0.12-3.96,0.01-6.03l6.99,0.44c-0.11,1.77-0.07,3.6-0.01,5.33
				c0.07,1.94,0.22,3.39,0.76,5c0.6,1.78,1.11,2.84,1.47,3.47c1.28-1.77,2.87-5.74,3.54-7.41c1.31-3.27,2.54-6.35,5.92-5.3
				c1.59,0.5,3.29,1.95,2.44,6.03c-0.01,0.03-0.01,0.05-0.02,0.08c0.23,4.68,1.29,6.95,2.15,8.04c0.75,0.95,1.17,1.07,1.18,1.07
				c0.31-0.06,1.51-0.99,2.76-3.39c0.42-0.8,0.8-1.65,1.21-2.55c0.59-1.31,1.21-2.66,1.97-3.98l6.05,3.52
				c-0.59,1.01-1.1,2.14-1.65,3.35c-0.43,0.94-0.87,1.92-1.37,2.89c-1.58,3.05-4.32,6.76-8.36,7.13
				C155.49,708.69,155.28,708.71,155.06,708.71z M151.74,692.23c0,0.03,0,0.06,0,0.09C151.75,692.29,151.75,692.26,151.74,692.23z"
				/>
		</g>
		<g>
			<rect x="175.85" y="680.11" transform="matrix(0.1437 -0.9896 0.9896 0.1437 -522.2778 763.6446)" width="8.56" height="7"/>
		</g>
		<g>
			<path d="M177.3,709.61c-0.4-3.9-0.56-6.62-0.71-9.5c-0.11-2.06-0.23-4.19-0.45-6.86l6.98-0.58c0.23,2.77,0.35,4.95,0.47,7.05
				c0.15,2.79,0.3,5.43,0.69,9.17L177.3,709.61z"/>
		</g>
		<g>
			<path d="M205.67,694.2c-2.48-0.13-13.76-2.17-16.27-3.16l2.57-6.51c1.64,0.65,12.09,2.58,14.05,2.68L205.67,694.2z"/>
		</g>
		<g>
			<path d="M199.04,715.66c-12.49-6.56-7.01-24.01-3.73-34.43c0.75-2.38,1.4-4.44,1.73-5.96l6.84,1.49
				c-0.4,1.83-1.09,4.03-1.89,6.57c-3.55,11.28-6.44,22.59,0.31,26.13L199.04,715.66z"/>
		</g>
		<g>
			<path d="M229.11,696.63c-0.15-0.02-15.57-2.17-18.8-3.95l3.38-6.13l-0.06-0.03c1.75,0.81,13.02,2.77,16.3,3.16L229.11,696.63z"/>
		</g>
		<g>
			<path d="M217.86,715.62c-9.9-7.93,2.46-35.62,2.59-35.89l6.34,2.97c-4.63,9.88-7.66,24.97-4.55,27.46L217.86,715.62z"/>
		</g>
		<g>
			<path d="M246.45,718.82c-5.83,0-10.07-3.03-11.52-8.37c-1.87-6.86,1.64-15.21,7.51-17.85c3.9-1.76,7.74-1.56,10.53,0.55
				c2.34,1.77,3.52,4.64,3.09,7.49c-0.45,2.99-2.62,5.47-5.8,6.63c-2.71,0.99-5.87,0.77-8.81-0.1c0.03,0.5,0.11,0.99,0.23,1.45
				c0.25,0.91,1.01,3.68,5.98,3.14l0.76,6.96C247.75,718.78,247.09,718.82,246.45,718.82z M243.52,700.46
				c1.69,0.48,3.32,0.6,4.34,0.23c0.75-0.27,1.21-0.67,1.27-1.09c0.05-0.31-0.1-0.64-0.39-0.86c-0.67-0.51-1.95-0.42-3.42,0.25
				C244.66,699.28,244.05,699.8,243.52,700.46z"/>
		</g>
		<g>
			<path d="M267.84,719.14c-0.44,0-0.87-0.08-1.3-0.25c-2.59-1.02-2.5-2.7-2.17-8.92c0.13-2.36,0.28-5.31,0.37-8.64
				c0.02-0.72,0.07-1.38,0.11-2.03c0.14-1.88,0.25-3.5-0.5-6.8l6.83-1.55c0.98,4.31,0.81,6.73,0.65,8.85
				c-0.04,0.55-0.08,1.11-0.1,1.72c-0.01,0.27-0.01,0.54-0.02,0.81c0.97-0.94,2.06-1.77,3.29-2.38c2.31-1.16,6.25-1.58,9.41,0.26
				c2.52,1.47,4.01,4.08,4.17,7.36l-6.99,0.36c-0.07-1.29-0.53-1.56-0.7-1.66c-0.81-0.47-2.26-0.3-2.75-0.06
				c-3.04,1.52-5.16,6.6-6.19,9.04c-0.53,1.27-0.82,1.97-1.34,2.58C269.91,718.68,268.88,719.14,267.84,719.14z"/>
		</g>
	</g>
</g>
<g id="LINE">
	<g>
		<g>
			<path d="M127.97,623.68c-2.56,0-4.45-0.7-5.75-2.29c-5.79-7.08-7.43-18.64-8.31-24.85c-0.18-1.25-0.36-2.53-0.47-2.94l6.75-1.87
				c0.23,0.84,0.4,2.02,0.66,3.82c0.77,5.44,2.2,15.48,6.57,21.11c1.02,0.21,4.07-0.04,13.24-3.23l2.3,6.61
				C136.49,622.29,131.57,623.68,127.97,623.68z"/>
		</g>
		<g>
			<rect x="141.96" y="586.85" transform="matrix(0.9793 -0.2024 0.2024 0.9793 -116.4423 42.086)" width="11.16" height="7"/>
		</g>
		<g>
			<path d="M149.98,612.15c-0.67-1.57-2.13-7.07-4.13-14.68c-0.81-3.09-1.58-6.02-1.83-6.81l6.67-2.11
				c0.29,0.91,0.92,3.31,1.93,7.15c1.23,4.67,3.28,12.5,3.8,13.72L149.98,612.15z"/>
		</g>
		<g>
			<path d="M167.35,612.31c-2.54-18.96-2.13-25.41,1.77-27.58c0.88-0.49,3.24-1.38,6.09,0.96c0.86,0.71,1.83,2.09,6.52,9.22
				c0.17,0.26,0.35,0.54,0.54,0.82c-0.31-4.97-0.68-10.6-0.97-14.93l6.98-0.47c0,0,0.46,6.7,0.88,13.43
				c0.96,15.3,0.96,15.3-0.69,16.56l-3.27,0.53c-1.59-0.57-2.21-1.28-9.32-12.1c-0.98-1.49-2.13-3.25-3.13-4.74
				c-0.02,3.04,0.33,8.3,1.54,17.36L167.35,612.31z"/>
		</g>
		<g>
			<path d="M238.66,602.36c-0.17,0-0.34,0-0.5-0.01l0.34-6.99c1.75,0.1,4.55-1.02,5.29-1.87c-0.07-0.1-0.17-0.23-0.33-0.41
				c-0.8-0.84-2.36-1.13-4.18-1.46c-2.31-0.42-5.18-0.95-7.4-3.05c-2.81-2.67-3.48-6.39-1.79-9.95c2.48-5.23,9.6-9.38,14.94-8.69
				l-0.88,6.94c-2.16-0.27-6.46,2.07-7.73,4.75c-0.45,0.95-0.28,1.34,0.28,1.87c0.71,0.67,2.24,0.95,3.85,1.25
				c2.51,0.46,5.63,1.03,8,3.53c3.28,3.47,2.31,6.72,1.74,7.96C248.39,600.33,242.5,602.36,238.66,602.36z"/>
		</g>
		<g>
			<path d="M258.86,582.52l-1.9-6.74c1.26-0.36,3.37-0.75,5.82-1.2c2.92-0.54,7.33-1.36,8.61-1.92l2.79,6.42
				c-1.87,0.81-5.22,1.47-10.12,2.38C261.97,581.85,259.81,582.25,258.86,582.52z"/>
		</g>
		<g>
			<path d="M265.9,595.42c-4.13-4.17-3.9-11.55-3.7-18.06c0.08-2.51,0.15-4.88-0.07-6.44l6.93-0.98c0.31,2.16,0.22,4.82,0.13,7.64
				c-0.14,4.59-0.34,10.88,1.68,12.92L265.9,595.42z"/>
		</g>
		<g>
			<path d="M289.02,589.02c-2.45,0-4.76-1.21-6.5-3.49c-3.18-4.16-4.33-12.01-0.91-16.65c1.1-1.48,4.3-4.69,10.38-2.45l-2.42,6.57
				c-1.8-0.67-2.18-0.15-2.32,0.04c-1.12,1.52-0.9,5.95,0.84,8.24c0.58,0.76,0.91,0.78,1.2,0.69c0.59-0.55,1.56-2.63,2.1-3.76
				c1.45-3.08,2.95-6.27,6.16-6.6c4.37-0.46,5.96,3.33,6.64,4.96c0.07,0.17,0.16,0.38,0.25,0.58c0.77-0.35,2.32-1.28,5.07-3.7
				l4.63,5.25c-5.23,4.62-8.59,6.21-11.61,5.52c-2.45-0.56-3.65-2.42-4.37-3.95c-0.16,0.32-0.31,0.64-0.44,0.92
				c-1.42,3.02-2.89,6.15-5.75,7.25C290.97,588.83,289.98,589.02,289.02,589.02z M289.21,582.04L289.21,582.04L289.21,582.04z"/>
		</g>
		<g>
			<path d="M321.58,575.61c-1.03,0-2.19-0.39-3.22-1.46c-1.62-1.67-4.54-7.96-3.18-10.82l4.64,2.2c1.52-3.6,4.1-5.9,7.71-6.87
				c3.58-0.96,5.82,0.82,7.23,2.97c1.05-2.15,2.99-4.38,7.07-5.47c5.86-1.57,9.04,2.73,10.74,5.03c0.41,0.55,0.99,1.34,1.37,1.69
				c0.28-0.14,0.83-0.49,1.7-1.34l4.89,5c-1.61,1.58-4.13,3.64-7.22,3.4c-3.17-0.25-4.95-2.66-6.38-4.59
				c-1.86-2.51-2.28-2.7-3.3-2.43c-2.41,0.65-2.68,1.63-3.25,3.79c-0.48,1.79-1.14,4.23-3.57,5.72c-1.03,0.64-2.28,0.77-3.41,0.36
				c-2.04-0.74-2.7-2.69-3.33-4.58c-0.23-0.7-0.68-2.04-1.08-2.68c-2.55,0.89-3.24,3.47-3.59,6.14c-0.13,0.98-0.37,2.8-2.26,3.62
				C322.71,575.49,322.17,575.61,321.58,575.61z M321.79,565.12L321.79,565.12z"/>
		</g>
		<g>
			<path d="M371.8,587.21c-2.72-10.13-5.77-20.22-9.07-30l6.63-2.24c3.34,9.92,6.44,20.15,9.19,30.42L371.8,587.21z"/>
		</g>
		<g>
			<path d="M380.54,567.1c-1.42,0-2.92-0.26-4.45-0.79l2.29-6.61c2.49,0.86,4.21,0.36,5.4-1.59c1.77-2.9,1.51-7.82-0.51-9.76
				c-2.13-2.04-6.06,0.1-8.22,1.55l-3.91-5.81c9.43-6.35,15.01-2.68,16.97-0.8c4.42,4.23,5.18,12.69,1.65,18.47
				C387.63,565.24,384.34,567.1,380.54,567.1z"/>
		</g>
		<g>
			<rect x="147.79" y="609.01" transform="matrix(0.9793 -0.2024 0.2024 0.9793 -120.8072 43.7249)" width="11.16" height="7"/>
		</g>
		<g>
			<path d="M199.42,586.05l-1-6.93c5.84-0.85,10.8-1.48,14.76-1.89l0.72,6.96C210.03,584.6,205.16,585.22,199.42,586.05z"/>
		</g>
		<g>
			<path d="M208.31,608.65c-2.6,0-4.81-0.55-6.71-1.86c-5.03-3.49-5.7-10.48-7.02-24.41c-0.13-1.37-0.27-2.8-0.41-4.3l6.97-0.68
				c0.15,1.51,0.29,2.95,0.42,4.33c0.98,10.26,1.68,17.68,4.05,19.32c1.96,1.36,7.44,0.11,11.4-0.95l1.82,6.76
				C214.75,607.94,211.28,608.65,208.31,608.65z"/>
		</g>
		<g>
			<path d="M205.76,595.18l-0.97-6.93l1.4-0.19c2.27-0.31,6.98-0.96,7.96-1.12l1.09,6.91c-0.96,0.15-4.68,0.67-8.09,1.14
				L205.76,595.18z"/>
		</g>
	</g>
</g>
<g id="note">
	<g>
		<g>
			<path d="M128.62,504.85l-6.8-1.64c1.05-4.33,0.05-8.26-2.66-10.51c-2.54-2.11-6.07-2.38-9.69-0.76
				c-1.07,0.48-2.04,2.04-2.98,3.56c-1.14,1.84-2.33,3.75-4.29,4.83l-2.09,1.14l-1.84-1.52c-1.35-1.13-1.64-2.25-1.06-8.03
				c0.27-2.67,0.83-6.58,1.97-10.08l6.66,2.17c-0.24,0.75-0.46,1.54-0.65,2.34c0.44-0.3,0.91-0.56,1.42-0.79
				c6.06-2.72,12.42-2.06,17.03,1.76C128.44,491.31,130.31,497.87,128.62,504.85z"/>
		</g>
		<g>
			<path d="M154.98,512.09c-6.51,0-13.88-2.64-16.77-7.49c-1.11-1.87-3.07-6.8,2.87-12.17c2.97-2.7,6.92-3.86,10.83-3.18l-1.19,6.9
				c-1.77-0.31-3.57,0.23-4.94,1.47c-2.33,2.1-1.76,3.05-1.55,3.4c1.72,2.89,9.7,5.24,14.59,3.52c2.24-0.79,2.55-2.02,2.33-3.62
				c-0.12-0.82-1.65-2.68-6.65-4.49l2.38-6.58c6.84,2.47,10.61,5.87,11.21,10.09c0.74,5.22-1.85,9.41-6.93,11.2
				C159.33,511.79,157.2,512.09,154.98,512.09z"/>
		</g>
		<g>
			<path d="M196.58,509.02c-5.1,0-12.14-2.24-16.87-5.52l3.99-5.75c4.28,2.97,11.03,4.7,13.98,4.19l1.17,6.9
				C198.16,508.97,197.4,509.02,196.58,509.02z"/>
		</g>
		<g>
			<path d="M194.92,524.47c-5.66-0.93-8.15-4.14-9.25-6.68c-4.58-10.55,6.75-27.66,6.86-27.83l5.82,3.89
				c-3.93,5.86-8.28,16.47-6.25,21.15c0.38,0.88,1.21,2.11,3.96,2.56L194.92,524.47z"/>
		</g>
		<g>
			<path d="M229.52,528.02c-2.73,0-5.56-0.79-8.19-2.33c-3.96-2.32-6.84-5.97-7.51-9.54c-0.04-0.2-0.07-0.4-0.1-0.59
				c-1-0.25-1.98-0.53-2.95-0.85l2.18-6.65c0.48,0.16,0.97,0.31,1.46,0.44c1.94-6.73,6.96-8.7,11.24-8.21
				c5.37,0.61,11.69,5.41,11.49,10.46c-0.06,1.37-0.82,5.88-8.39,6.13c-2.56,0.08-4.92,0.05-7.13-0.11c0.7,0.98,1.79,2.02,3.24,2.87
				c2.26,1.33,4.67,1.71,6.61,1.06l2.23,6.63C232.38,527.8,230.97,528.02,229.52,528.02z M221.37,509.74
				c2.19,0.19,4.55,0.24,7.17,0.16c0.44-0.01,0.79-0.05,1.08-0.09c-1.02-1.14-3.27-2.62-5.38-2.58
				C223.66,507.25,222.28,507.29,221.37,509.74z"/>
		</g>
	</g>
</g>
<g id="omokoro">
	<g>
		<g>
			<path d="M231.86,453.15c-9.39,0-11.09-5.58-12.01-8.58c-0.17-0.54-0.41-1.33-0.59-1.63c-4.68-1.16-6.98,1.07-8.83,2.87
				c-1.15,1.12-2.34,2.27-4.19,2.28l-1.55,0.01l-1.1-1.17c-1.15-1.25-1.02-2.69-0.89-4.08c0.06-0.63,0.21-2.39,0.01-3.21
				c-1.75-0.3-3.62,0.39-4.61,1.71c-0.08,0.14-0.2,0.37-0.35,0.64c-0.38,0.7-0.9,1.66-1.36,2.44c-0.66,1.13-2.4,4.13-5.44,2.67
				c-2.04-0.93-2.17-2.77-2.4-5.81c-0.14-1.83-0.32-4.35-0.78-5.97l6.74-1.89c0.13,0.45,0.24,0.92,0.33,1.4
				c2.79-2.05,6.44-2.8,9.95-1.9c2.77,0.71,4.05,2.64,4.61,4.72c2.67-1.63,6.44-2.82,11.61-1.5c3.89,0.98,4.92,4.35,5.53,6.36
				c0.79,2.58,1.08,3.63,5.41,3.63l0.04,7C231.95,453.15,231.9,453.15,231.86,453.15z"/>
		</g>
		<g>
			<path d="M293.16,468.91c-11.59,0-15.66-4.66-17.05-7.45c-1.77-3.54-1.26-7.71,1.36-11.16c3.38-4.46,9.24-6.51,15.29-5.34
				l-1.33,6.87c-4.08-0.79-7,0.87-8.38,2.69c-0.47,0.62-1.47,2.22-0.68,3.8c0.43,0.85,2.46,3.58,11,3.58l0.04,7
				C293.32,468.91,293.24,468.91,293.16,468.91z"/>
		</g>
		<g>
			<path d="M341.98,482.12c-0.48,0-0.99-0.11-1.54-0.36c-2.7-1.23-2.18-4.1-1.88-5.82c0.25-1.4,0.69-3.48,1.36-6.62
				c0.35-1.66,0.77-3.6,1.24-5.87l6.85,1.43c-0.23,1.11-0.45,2.15-0.65,3.11c3.27-2.26,7.51-3.77,12.68-2.46l-1.72,6.79
				c-5.19-1.31-8.96,2.54-12.27,6.91C345.13,480.43,343.85,482.12,341.98,482.12z"/>
		</g>
		<g>
			<path d="M169.12,445.77c-1.15,0-2.31-0.13-3.46-0.39c-3.55-0.8-6.65-2.75-8.73-5.5c-2.21-2.92-3.01-6.38-2.26-9.73
				c1.5-6.7,8.86-10.78,16.42-9.09c3.56,0.79,6.66,2.75,8.73,5.5c2.21,2.92,3.01,6.38,2.26,9.73c-0.67,2.99-2.54,5.59-5.26,7.31
				C174.58,445.03,171.89,445.77,169.12,445.77z M167.62,427.68c-3.01,0-5.57,1.58-6.11,4.01c-0.29,1.32,0.07,2.73,1.01,3.99
				c1.08,1.43,2.74,2.45,4.68,2.88l0.01,0c2.12,0.47,4.26,0.16,5.88-0.86c0.81-0.51,1.84-1.44,2.18-2.93
				c0.29-1.32-0.07-2.73-1.01-3.99c-1.08-1.43-2.74-2.45-4.68-2.88C168.91,427.75,168.25,427.68,167.62,427.68z"/>
		</g>
		<g>
			<path d="M254.71,460.35c-1.15,0-2.31-0.13-3.47-0.39l0,0c-7.3-1.63-12.1-8.03-10.71-14.26c0.69-3.11,2.88-5.78,5.99-7.31
				c2.9-1.43,6.36-1.79,9.76-1.04c7.3,1.63,12.1,8.03,10.71,14.26c-0.6,2.71-2.31,5.07-4.8,6.65
				C260.03,459.64,257.42,460.35,254.71,460.35z M252.82,443.98c-1.16,0-2.28,0.24-3.22,0.7c-0.7,0.35-1.93,1.14-2.25,2.55
				c-0.54,2.42,1.94,5.13,5.41,5.9l0.01,0c2.06,0.46,4.17,0.17,5.66-0.77c0.65-0.41,1.47-1.14,1.72-2.26
				c0.54-2.43-1.94-5.13-5.41-5.9C254.1,444.05,253.46,443.98,252.82,443.98z"/>
		</g>
		<g>
			<path d="M317.71,475.22c-1.06,0-2.13-0.12-3.2-0.35l0,0c-6.96-1.56-11.52-7.83-10.15-13.98c0.61-2.73,2.31-5.11,4.8-6.69
				c2.93-1.86,6.7-2.46,10.33-1.65c6.96,1.56,11.52,7.83,10.15,13.98c-0.61,2.73-2.31,5.11-4.8,6.69
				C322.78,474.53,320.28,475.22,317.71,475.22z M316.04,468.04c1.84,0.41,3.68,0.14,5.05-0.73c0.64-0.41,1.46-1.14,1.72-2.3
				c0.52-2.35-1.7-4.93-4.85-5.64c-1.84-0.41-3.68-0.15-5.05,0.73c-0.64,0.41-1.46,1.14-1.72,2.3
				C310.68,464.75,312.9,467.33,316.04,468.04L316.04,468.04z"/>
		</g>
		<g>
			<path d="M379.14,489.08c-0.83,0-1.66-0.09-2.48-0.27l0,0c-6.34-1.42-10.3-7.99-8.82-14.64c0.74-3.33,2.69-6.15,5.5-7.94
				c2.63-1.67,5.72-2.23,8.7-1.56c6.34,1.42,10.3,7.99,8.82,14.64c-0.74,3.33-2.69,6.15-5.5,7.94
				C383.45,488.46,381.3,489.08,379.14,489.08z M378.18,481.97c1.15,0.26,2.36,0.03,3.41-0.64c1.21-0.77,2.1-2.06,2.43-3.55
				c0.64-2.89-0.94-5.72-3.52-6.3c-1.15-0.26-2.36-0.03-3.41,0.64c-1.21,0.77-2.1,2.06-2.43,3.55
				C374.03,478.57,375.6,481.4,378.18,481.97L378.18,481.97z"/>
		</g>
	</g>
</g>
<g id="insta">
	<g>
		<g>
			<rect x="80.55" y="367.07" transform="matrix(0.9969 -0.0787 0.0787 0.9969 -28.7977 7.7572)" width="7" height="4.57"/>
		</g>
		<g>
			<path d="M87.8,392.77l-7-0.09c0.03-2.32,0.12-5.4,0.21-8.37c0.09-3.15,0.19-6.4,0.21-8.8l7,0.07c-0.03,2.46-0.12,5.75-0.22,8.93
				C87.92,387.46,87.83,390.51,87.8,392.77z"/>
		</g>
		<g>
			<path d="M105.87,388.55c-0.37,0-0.76-0.04-1.17-0.12c-4.51-0.93-4.22-6.43-4.08-9.08c0.02-0.41,0.05-0.98,0.04-1.16
				c-0.09-1.21-0.42-1.26-0.91-1.32l0.92-6.94c3.52,0.47,5.95,2.73,6.73,6.16c0.09-0.13,0.18-0.25,0.28-0.36
				c4.41-5.2,10.36-7.36,15.9-5.78c5.38,1.53,9.29,6.36,10.21,12.61l-6.92,1.03c-0.52-3.54-2.47-6.12-5.21-6.9
				c-2.84-0.81-5.96,0.46-8.56,3.48c-0.15,0.28-0.43,1-0.62,1.48C111.52,384.12,109.79,388.55,105.87,388.55z M113.04,380.24
				c-0.01,0.01-0.01,0.01-0.02,0.02C113.03,380.26,113.03,380.25,113.04,380.24z"/>
		</g>
		<g>
			<path d="M144.92,386.23c-0.07,0-0.14,0-0.22,0l0.07-7c3.52,0.01,6.2-1.06,9.35-2.85c0.01,0,0.01-0.01,0.02-0.01
				c-0.92-0.62-2.22-1.35-3.12-1.86c-3.93-2.2-8.38-4.69-8.1-9.1c0.28-4.4,5.24-6.97,10.06-8.91l2.61,6.49
				c-3.23,1.3-4.69,2.26-5.33,2.8c0.93,0.8,2.9,1.9,4.17,2.62c3.71,2.07,7.54,4.22,7.55,8.05c0,2.34-1.48,4.36-4.41,6.02
				C154.11,384.43,150.19,386.23,144.92,386.23z"/>
		</g>
		<g>
			<path d="M166.91,366.6l-0.64-6.97c4.13-0.38,11.73-2.73,15.51-4.5l2.97,6.34C180.35,363.52,171.95,366.13,166.91,366.6z"/>
		</g>
		<g>
			<path d="M176.64,376.8c-1.88-4.77-2.94-9.63-3.97-14.32c-0.56-2.56-1.14-5.21-1.84-7.76l6.75-1.85c0.75,2.72,1.35,5.47,1.93,8.12
				c1.01,4.63,1.97,9,3.64,13.26L176.64,376.8z"/>
		</g>
		<g>
			<path d="M205.83,370.93c-3.68,0-7.54-1.08-9.27-3.93c-3.37-5.55-1.39-13.17,2.46-17.32c3.6-3.88,8.51-4.8,13.13-2.45l-3.17,6.24
				c-0.66-0.33-2.67-1.36-4.83,0.97c-2.2,2.37-2.97,6.56-1.65,8.86c1.02,0.83,5.39,0.89,6.78,0.07c1.71-1.01,3.22-3.04,4.04-4.13
				c0.78-1.04,1.51-2.03,3.06-2.24l1.46-0.2l1.18,0.91c0.49,0.38,0.97,0.79,1.45,1.2c0.84,0.71,2.37,2,3.06,2.2
				c0.16-0.13,0.55-0.52,1.08-1.52l6.18,3.29c-1.57,2.96-3.57,4.68-5.93,5.14c-2.95,0.56-5.42-0.94-7.5-2.59
				c-1.14,1.35-2.66,2.88-4.54,3.99C211.26,370.32,208.6,370.93,205.83,370.93z M202.46,363.27
				C202.46,363.27,202.46,363.27,202.46,363.27z"/>
		</g>
		<g>
			<path d="M243.79,375.14c-0.1,0-0.2,0-0.3,0l0.08-7c5.4,0.08,8.93-2.04,10.29-6.08c1-2.98,0.54-6.25-0.62-8.53
				c-0.06,0.07-0.13,0.13-0.19,0.2c-2.45,2.34-5.99,3.32-9.99,2.8c-3.84-0.5-6.61-2.98-7.41-6.63c-1.05-4.78,1.52-10.84,5.74-13.51
				c3.46-2.19,7.41-1.93,10.83,0.72l-4.29,5.53c-1.32-1.02-2.13-0.77-2.8-0.34c-1.77,1.12-3.08,4.13-2.65,6.08
				c0.15,0.67,0.43,1.06,1.49,1.2c1.26,0.17,2.97,0.16,4.1-0.8c0.07-0.1,0.14-0.21,0.23-0.34c0.91-1.34,2.15-3.18,4.24-3.54
				c1.09-0.19,2.17,0.07,3.06,0.72c5.01,3.71,7.15,11.9,4.88,18.65C258.17,371.2,252.09,375.14,243.79,375.14z"/>
		</g>
		<g>
			<path d="M272.63,353.83c-0.07,0-0.14,0-0.22-0.01c-2.98-0.15-3.37-2.36-4.14-6.77c-0.31-1.76-0.73-4.19-1.35-7.47l6.88-1.3
				c0.08,0.43,0.16,0.84,0.23,1.25c2.13-2.39,5.27-4.42,9.92-4.92l0.76,6.96c-5.37,0.59-7.17,4.47-8.32,8.59
				C276.11,351.16,275.36,353.83,272.63,353.83z"/>
		</g>
		<g>
			<path d="M299.97,350.1c-3.21,0-5.15-1.59-6.01-2.51c-3.46-3.73-2.93-9.99-0.67-13.98c2.27-4.02,6.12-5.9,10.28-5.02l-1.44,6.85
				c-0.45-0.09-1.64-0.34-2.75,1.62c-1.18,2.09-1.13,4.87-0.29,5.77c0.43,0.47,1.68,0.34,3.21-0.33c0.79-0.98,2.37-4.06,2.91-5.11
				c1.06-2.07,1.82-3.57,4.04-3.57c1.65,0,2.83,0.94,3.51,2.81c0.7,1.92,1.17,2.33,1.34,2.42c-0.01-0.01,0.54-0.05,1.69-0.96
				l4.33,5.5c-2.76,2.17-5.44,2.9-7.96,2.18c-1.07-0.31-1.97-0.83-2.71-1.47c-1.4,2.42-2.49,3.75-3.8,4.37
				C303.44,349.72,301.55,350.1,299.97,350.1z"/>
		</g>
		<g>
			<path d="M327.97,342.42c-0.03,0-0.06,0-0.09,0c-2.91-0.03-3.87-2.49-6.2-8.43c-0.38-0.96-0.89-2.27-1.06-2.59
				c0.05,0.09,0.1,0.16,0.14,0.22l5.72-4.03c0.35,0.5,0.64,1.14,1.21,2.56c0.7-1.67,1.26-2.51,2.14-3.11
				c2.27-1.53,4.32-1.5,5.64-1.21c2.08,0.46,3.66,1.79,4.85,3.24c1.32-2.77,3.17-6.16,6.84-6.83c4.9-0.89,8.38,2.58,10.91,5.11
				c0.91,0.9,2.6,2.59,3.23,2.65c0,0,0.12-0.05,0.31-0.18l4.04,5.72c-5.44,3.84-9.87-0.58-12.52-3.22c-2.01-2-3.52-3.4-4.72-3.18
				c-0.54,0.3-1.54,2.45-2.08,3.61c-1.07,2.28-2.17,4.64-4.36,5.67c-3.04,1.46-4.88-1.56-5.57-2.7c-0.38-0.63-1.48-2.43-2.22-2.93
				c-0.39,0.92-0.93,2.43-1.29,3.44C331.42,340.33,330.67,342.42,327.97,342.42z M338.65,332.29L338.65,332.29L338.65,332.29z"/>
		</g>
	</g>
</g>
</svg>
